<svg width="110" height="100" viewBox="0 0 110 100" fill="none" xmlns="http://www.w3.org/2000/svg">
<path d="M107.73 100C106.758 100 105.993 99.2337 105.993 98.2584V92.4068C105.993 87.7046 102.172 83.8384 97.482 83.8384H93.0699C88.3799 83.8384 84.5585 87.6698 84.5585 92.4068V98.2584C84.5585 99.2337 83.7942 100 82.8214 100C81.8487 100 81.0844 99.2337 81.0844 98.2584V92.4068C81.0844 87.1125 84.5237 82.6193 89.2485 80.9822C85.7049 78.9272 83.3078 75.061 83.3078 70.6722C83.3078 64.7161 87.6504 59.8049 93.3478 58.8993C92.5835 53.187 87.6851 48.7983 81.814 48.7983H27.723C21.8171 48.7983 16.9186 53.2219 16.1544 58.9342C21.7128 59.9094 25.9512 64.8206 25.9512 70.6722C25.9512 75.061 23.5888 78.8924 20.08 80.9474C24.909 82.5148 28.383 87.0428 28.383 92.4068V98.2584C28.383 99.2337 27.6187 100 26.646 100C25.6733 100 24.909 99.2337 24.909 98.2584V92.4068C24.909 87.7046 21.0875 83.8384 16.3975 83.8384H11.9855C7.29551 83.8384 3.47405 87.6698 3.47405 92.4068V98.2584C3.47405 99.2337 2.70976 100 1.73703 100C0.764292 100 0 99.2337 0 98.2584V92.4068C0 87.1125 3.43931 82.6193 8.16403 80.9822C4.62049 78.9272 2.22339 75.061 2.22339 70.6722C2.22339 64.6813 6.67018 59.7005 12.4371 58.8645C13.2361 51.132 19.8021 45.0714 27.723 45.0714H30.5022V37.8962C30.5022 30.721 36.3386 24.8694 43.4952 24.8694H49.2621C44.85 22.7795 41.7581 18.2863 41.7581 13.0617C41.7581 5.85162 47.5945 0 54.7511 0C61.9076 0 67.7441 5.85162 67.7441 13.0617C67.7441 18.2863 64.6869 22.8144 60.2401 24.8694H66.007C73.1636 24.8694 79 30.721 79 37.8962V45.0714H81.7792C89.7001 45.0714 96.266 51.132 97.0651 58.8993C102.728 59.8049 107.07 64.751 107.07 70.6722C107.07 75.061 104.708 78.8924 101.199 80.9474C106.028 82.5148 109.502 87.0428 109.502 92.4068V98.2584C109.502 99.2337 108.738 100 107.765 100H107.73ZM95.1543 62.2431C90.5338 62.2431 86.7471 66.0397 86.7471 70.6722C86.7471 75.3048 90.4991 79.1014 95.1543 79.1014C99.8096 79.1014 103.562 75.3048 103.562 70.6722C103.562 66.0397 99.8096 62.2431 95.1543 62.2431ZM14.1047 62.2431C9.48417 62.2431 5.69745 66.0397 5.69745 70.6722C5.69745 75.3048 9.44943 79.1014 14.1047 79.1014C18.7599 79.1014 22.5119 75.3048 22.5119 70.6722C22.5119 66.0397 18.7599 62.2431 14.1047 62.2431ZM70.0022 45.0714H75.5259V37.8962C75.5259 32.6367 71.2528 28.3525 66.007 28.3525H43.4952C38.2493 28.3525 33.9762 32.6367 33.9762 37.8962V45.0714H39.5V37.8962C39.5 36.9209 40.2643 36.1547 41.237 36.1547C42.2098 36.1547 42.974 36.9209 42.974 37.8962V45.0714H66.5281V37.8962C66.5281 36.9209 67.2924 36.1547 68.2652 36.1547C69.2379 36.1547 70.0022 36.9209 70.0022 37.8962V45.0714ZM54.7164 3.48311C49.4705 3.48311 45.1974 7.76733 45.1974 13.0617C45.1974 18.356 49.4705 22.6402 54.7164 22.6402C59.9622 22.6402 64.2353 18.356 64.2353 13.0617C64.2353 7.76733 59.9622 3.48311 54.7164 3.48311ZM67.084 100C66.1112 100 65.347 99.2337 65.347 98.2584V92.4068C65.347 87.7046 61.5255 83.8384 56.8355 83.8384H52.4235C47.7335 83.8384 43.912 87.6698 43.912 92.4068V98.2584C43.912 99.2337 43.1478 100 42.175 100C41.2023 100 40.438 99.2337 40.438 98.2584V92.4068C40.438 87.1125 43.8773 82.6193 48.602 80.9822C45.0585 78.9272 42.6614 75.061 42.6614 70.6722C42.6614 64.0892 47.9767 58.76 54.5426 58.76C61.1086 58.76 66.4239 64.0892 66.4239 70.6722C66.4239 75.061 64.0616 78.8924 60.5528 80.9474C65.3817 82.5148 68.8558 87.0428 68.8558 92.4068V98.2584C68.8558 99.2337 68.0915 100 67.1187 100H67.084ZM54.5079 62.2431C49.8874 62.2431 46.1007 66.0397 46.1007 70.6722C46.1007 75.3048 49.8527 79.1014 54.5079 79.1014C59.1631 79.1014 62.9151 75.3048 62.9151 70.6722C62.9151 66.0397 59.1631 62.2431 54.5079 62.2431Z" fill="white"/>
</svg>
