<svg width="82" height="100" viewBox="0 0 82 100" fill="none" xmlns="http://www.w3.org/2000/svg">
<path d="M78.686 100H3.28786C2.36957 100 1.51688 99.6064 0.893752 98.9505C0.270627 98.2946 -0.0573353 97.3763 0.00825683 96.458C0.72977 86.3568 7.09221 80.1584 20.0466 76.9771L26.901 75.2717C27.393 75.1406 27.9177 75.2717 28.3113 75.5669C28.7048 75.8621 28.9344 76.354 28.9344 76.8459C28.9344 84.2907 35.428 86.9471 41.0033 86.9471C46.5787 86.9471 53.0723 84.2907 53.0723 76.8459C53.0723 76.354 53.3018 75.8621 53.6954 75.5669C54.089 75.2717 54.6137 75.1733 55.1056 75.2717L61.96 76.9771C74.9144 80.1911 81.2769 86.3896 81.9656 96.458C82.0312 97.3763 81.7032 98.2946 81.0801 98.9505C80.457 99.6064 79.5715 100 78.686 100ZM25.786 78.9121L20.8338 80.1583C9.28954 83.0116 3.87819 88.095 3.28786 96.6876H78.686C78.0957 88.095 72.6843 83.0116 61.1401 80.1583L56.1879 78.9121C55.204 85.7665 49.3663 90.2267 40.9705 90.2267C32.5747 90.2267 26.737 85.7665 25.7532 78.9121H25.786Z" fill="white"/>
<path d="M40.9702 90.2274C31.7873 90.2274 25.6217 84.8488 25.6217 76.8466C25.6217 76.1579 26.048 75.5676 26.6711 75.3052C29.4588 74.2229 30.7707 72.5175 30.7707 69.9922V67.4669C30.7707 66.8766 31.0986 66.3519 31.5906 66.0567C32.0825 65.7615 32.7384 65.7615 33.2304 66.0567C38.3465 69.0739 43.5939 69.0739 48.7101 66.0567C49.2348 65.7615 49.858 65.7615 50.3499 66.0567C50.8746 66.3519 51.1698 66.8766 51.1698 67.4669V69.9922C51.1698 72.5175 52.5144 74.2557 55.2693 75.3052C55.8924 75.5348 56.3188 76.1579 56.3188 76.8466C56.3188 84.8488 50.1531 90.2274 40.9702 90.2274ZM28.9341 77.8961C29.5244 84.5537 35.6573 86.9478 40.9702 86.9478C46.2832 86.9478 52.416 84.5537 53.0064 77.8961C49.7596 76.2891 47.9558 73.567 47.923 70.1234C43.2987 72.0912 38.6745 72.0912 34.0503 70.1234C34.0175 73.5998 32.2465 76.2563 28.9669 77.8961H28.9341Z" fill="white"/>
<path d="M40.9708 71.6313C30.476 71.6313 18.7679 60.6774 18.7679 46.0176V45.1321C18.7679 44.5418 19.0958 43.9842 19.6206 43.6891C20.1453 43.3939 20.8012 43.4267 21.2932 43.7547C24.3104 45.6896 32.3126 50.2483 40.9708 50.2483C49.6289 50.2483 57.5984 45.7224 60.6484 43.7547C61.1404 43.4267 61.7963 43.3939 62.321 43.6891C62.8458 43.9842 63.1737 44.5418 63.1737 45.1321V46.0176C63.1737 60.7102 51.4655 71.6641 40.9708 71.6641V71.6313ZM22.1458 48.051C23.1625 59.628 32.7062 68.3517 40.9708 68.3517C49.2354 68.3517 58.779 59.628 59.7957 48.051C55.5978 50.3795 48.5467 53.4951 40.9708 53.4951C33.3949 53.4951 26.3437 50.3795 22.1458 48.051Z" fill="white"/>
<path d="M40.9689 53.4945C28.7688 53.4945 18.2084 45.6235 17.7493 45.2955C17.3557 45.0003 17.0934 44.5084 17.0934 43.9837V28.6351C17.0934 28.0448 17.3885 27.52 17.9133 27.2249C18.4052 26.9297 19.0283 26.9297 19.5531 27.2249L40.4769 38.8019C40.7721 38.9659 41.1657 38.9659 41.4608 38.8019L62.3847 27.2249C62.9094 26.9297 63.4998 26.9625 64.0245 27.2249C64.5164 27.52 64.8444 28.0448 64.8444 28.6351V43.9837C64.8444 44.5084 64.6148 44.9675 64.1885 45.2955C63.7293 45.6235 53.2018 53.4945 40.9689 53.4945ZM20.373 43.131C22.7671 44.7708 31.4908 50.2149 40.9689 50.2149C50.4469 50.2149 59.1707 44.7708 61.5648 43.131V31.39L43.0678 41.6224C41.7888 42.3111 40.1818 42.3111 38.9027 41.6224L20.4058 31.39V43.131H20.373Z" fill="white"/>
<path d="M40.9686 42.1799C40.2471 42.1799 39.5256 41.9831 38.8697 41.6552L8.10696 24.634C6.79512 23.9125 5.97522 22.5679 5.97522 21.092C5.97522 19.6162 6.79512 18.2716 8.07417 17.5501L38.8369 0.528908C40.1159 -0.192605 41.7229 -0.159809 43.002 0.528908L73.7647 17.5501C75.0765 18.2716 75.8964 19.6162 75.8964 21.092C75.8964 22.5679 75.0765 23.9125 73.7647 24.634L43.002 41.6552C42.3788 42.0159 41.6573 42.1799 40.903 42.1799H40.9686ZM40.9686 3.28378C40.8046 3.28378 40.6079 3.31657 40.4767 3.41496L9.71397 20.4361C9.4516 20.5673 9.28762 20.8297 9.28762 21.092C9.28762 21.3544 9.4516 21.6168 9.71397 21.748L40.4767 38.7691C40.7718 38.9331 41.1654 38.9331 41.4606 38.7691L72.2233 21.748C72.4856 21.6168 72.6496 21.3544 72.6496 21.092C72.6496 20.8297 72.4856 20.5673 72.2233 20.4361L41.4606 3.41496C41.4606 3.41496 41.1326 3.28378 40.9686 3.28378Z" fill="white"/>
<path d="M74.3868 36.6051C73.4685 36.6051 72.6158 35.8836 72.6158 34.9653V22.7979H41.0004C40.0821 22.7979 39.3606 22.0764 39.3606 21.1581C39.3606 20.2398 40.0821 19.3871 41.0004 19.3871H74.3212C74.7803 19.3871 75.2067 19.5839 75.5018 19.9119C75.8298 20.207 76.0266 20.6334 76.0266 21.0925V34.9981C76.0266 35.9164 75.305 36.6379 74.3868 36.6379V36.6051Z" fill="white"/>
<path d="M78.4874 49.0992H70.1572C69.2389 49.0992 68.5174 48.3777 68.5174 47.4594V39.1292C68.5174 35.9152 71.1083 33.3243 74.3223 33.3243C77.5363 33.3243 80.1272 35.9152 80.1272 39.1292V47.4594C80.1272 48.3777 79.4057 49.0992 78.4874 49.0992ZM71.797 45.8196H76.8476V39.1292C76.8476 37.7517 75.6997 36.6039 74.3223 36.6039C72.9449 36.6039 71.797 37.7517 71.797 39.1292V45.8196Z" fill="white"/>
</svg>
