<svg width="44" height="46" viewBox="0 0 44 46" fill="none" xmlns="http://www.w3.org/2000/svg">
<path d="M34.0826 46C28.6199 46 24.1652 41.4798 24.1652 35.9086C24.1652 33.0977 25.2975 30.5527 27.1267 28.7168L22 25.7033L16.8733 28.7168C18.7025 30.5527 19.8348 33.0977 19.8348 35.9086C19.8348 41.4671 15.3801 46 9.91742 46C4.45475 46 0 41.4798 0 35.9086C0 30.3375 4.44231 25.8172 9.91742 25.8172C12.1448 25.8172 14.2104 26.5643 15.8654 27.8431C15.9152 27.7545 15.9898 27.6785 16.0769 27.6279L21.3405 24.5384V20.1574C16.1765 19.8156 12.0826 15.4346 12.0826 10.0914C12.0826 4.74814 16.5249 0 22 0C27.4751 0 31.9174 4.52023 31.9174 10.0914C31.9174 15.6625 27.8235 19.8029 22.6595 20.1574V24.5384L27.9106 27.6152C27.9977 27.6658 28.0724 27.7418 28.1346 27.8431C29.7896 26.5769 31.8552 25.8172 34.0826 25.8172C39.5452 25.8172 44 30.3375 44 35.9086C44 41.4798 39.5452 46 34.0826 46ZM30.2873 43.8475C32.6143 44.9997 35.6505 44.9871 37.9649 43.8095V41.8343C37.9649 40.125 36.5962 38.7322 34.9163 38.7322H33.336C31.6561 38.7322 30.2873 40.125 30.2873 41.8343V43.8475ZM6.12217 43.8475C8.44909 44.9997 11.4853 44.9871 13.7998 43.8095V41.8343C13.7998 40.125 12.431 38.7322 10.7511 38.7322H9.17082C7.49095 38.7322 6.12217 40.125 6.12217 41.8343V43.8475ZM34.0826 27.0961C29.3043 27.0961 25.4095 31.0465 25.4095 35.9213C25.4095 38.8715 26.8405 41.4924 29.043 43.1005V41.8343C29.043 39.9097 30.2624 38.2764 31.9548 37.6939C30.6855 36.9469 29.8269 35.5541 29.8269 33.946C29.8269 31.5656 31.7308 29.6284 34.0701 29.6284C36.4095 29.6284 38.3133 31.5656 38.3133 33.946C38.3133 35.5288 37.4672 36.9216 36.2229 37.6686C37.94 38.2384 39.1968 39.8844 39.1968 41.8216V43.0245C41.3496 41.4165 42.7432 38.8335 42.7432 35.9086C42.7432 31.0465 38.8484 27.0834 34.0701 27.0834L34.0826 27.0961ZM9.91742 27.0961C5.13914 27.0961 1.24434 31.0465 1.24434 35.9213C1.24434 38.8715 2.67534 41.4924 4.87783 43.1005V41.8343C4.87783 39.9097 6.09728 38.2764 7.78959 37.6939C6.52036 36.9469 5.66176 35.5541 5.66176 33.946C5.66176 31.5656 7.56561 29.6284 9.90498 29.6284C12.2443 29.6284 14.1482 31.5656 14.1482 33.946C14.1482 35.5288 13.302 36.9216 12.0577 37.6686C13.7749 38.2384 15.0317 39.8844 15.0317 41.8216V43.0245C17.1844 41.4165 18.5781 38.8335 18.5781 35.9086C18.5781 31.0465 14.6833 27.0834 9.90498 27.0834L9.91742 27.0961ZM34.0826 30.8946C32.4276 30.8946 31.0837 32.262 31.0837 33.946C31.0837 35.6301 32.4276 36.9975 34.0826 36.9975C35.7376 36.9975 37.0815 35.6301 37.0815 33.946C37.0815 32.262 35.7376 30.8946 34.0826 30.8946ZM9.91742 30.8946C8.26244 30.8946 6.91855 32.262 6.91855 33.946C6.91855 35.6301 8.26244 36.9975 9.91742 36.9975C11.5724 36.9975 12.9163 35.6301 12.9163 33.946C12.9163 32.262 11.5724 30.8946 9.91742 30.8946ZM18.2048 18.0303C20.5317 19.1825 23.5679 19.1698 25.8824 17.9923V16.0171C25.8824 14.3077 24.5136 12.9149 22.8337 12.9149H21.2534C19.5735 12.9149 18.2048 14.3077 18.2048 16.0171V18.0303ZM22 1.27883C17.2217 1.27883 13.3269 5.22929 13.3269 10.104C13.3269 13.0542 14.7579 15.6752 16.9604 17.2706V16.0044C16.9604 14.0798 18.1799 12.4465 19.8722 11.864C18.6029 11.117 17.7443 9.72419 17.7443 8.11616C17.7443 5.73575 19.6482 3.79851 21.9876 3.79851C24.3269 3.79851 26.2308 5.73575 26.2308 8.11616C26.2308 9.69887 25.3846 11.0917 24.1403 11.8387C25.8575 12.4085 27.1143 14.0545 27.1143 15.9917V17.1946C29.267 15.5866 30.6606 13.0036 30.6606 10.0787C30.6606 5.21663 26.7658 1.25351 21.9876 1.25351L22 1.27883ZM22 5.07735C20.345 5.07735 19.0011 6.44481 19.0011 8.12882C19.0011 9.81283 20.345 11.1803 22 11.1803C23.655 11.1803 24.9989 9.81283 24.9989 8.12882C24.9989 6.44481 23.655 5.07735 22 5.07735Z" fill="#EDAA50"/>
</svg>
