<svg width="109" height="100" viewBox="0 0 109 100" fill="none" xmlns="http://www.w3.org/2000/svg">
<path d="M74.6527 100C74.2833 100 73.8467 99.8334 73.5445 99.6001L56.1826 85.8047V94.2019C56.1826 95.1349 55.3431 95.968 54.4028 95.968C53.4625 95.968 52.6229 95.1349 52.6229 94.2019V85.8047L35.261 99.6001C34.5894 100.133 33.3805 100.033 32.8096 99.3669C32.5073 99.0003 32.3394 98.4672 32.4066 98.0007C32.4737 97.5342 32.7424 97.0676 33.1454 96.7677L52.6901 81.2729V75.7414H5.74251C4.80222 75.7414 4.06342 75.0083 4.06342 74.0753V11.1296C1.71268 10.4299 0 8.23059 0 5.6981C0 2.56581 2.58581 0 5.74251 0H103.029C106.186 0 108.772 2.56581 108.772 5.6981C108.772 8.26392 107.059 10.4299 104.709 11.1296V74.0753C104.709 75.0083 103.97 75.7414 103.029 75.7414H56.149V81.2729L75.7609 96.8344C76.0967 97.101 76.3654 97.6008 76.4325 98.034C76.4661 98.5005 76.3318 99.0003 76.0295 99.3669C75.7273 99.7334 75.1564 100 74.6527 100ZM54.9401 72.4425H101.35V11.3962H7.42161V72.4092H53.8319C54.2013 72.2759 54.5707 72.2759 54.9401 72.4092V72.4425ZM5.74251 8.06398H103.029C104.339 8.06398 105.414 6.99767 105.414 5.6981C105.414 4.39854 104.339 3.33222 103.029 3.33222H5.74251C4.43282 3.33222 3.3582 4.39854 3.3582 5.6981C3.3582 6.99767 4.43282 8.06398 5.74251 8.06398ZM21.9626 56.9477C21.4253 56.9477 20.8544 56.6811 20.5522 56.2479C20.2835 55.9147 20.1492 55.4149 20.2163 55.015C20.2499 54.5818 20.5186 54.082 20.888 53.8154L36.6715 40.5531C37.3095 40.02 38.317 40.02 38.9551 40.5531L53.6975 52.949L82.5108 30.9564L78.6825 30.4565C77.7758 30.3232 77.037 29.3902 77.1377 28.4905C77.2385 27.6574 78.0445 26.9244 78.9176 26.9244L87.0444 27.9573C87.9511 28.0906 88.6899 29.0237 88.5892 29.9234L87.5481 37.7874C87.4474 38.6205 86.6414 39.3202 85.7683 39.3202C85.2982 39.3202 84.7944 39.0536 84.4586 38.7204C84.1564 38.3539 83.9213 37.8207 83.9885 37.3542L84.4586 33.8887L54.6714 56.6145C54.0334 57.1143 52.9923 57.0477 52.3878 56.5145L37.7461 44.2186L23.0708 56.5478C22.7686 56.8144 22.332 56.9477 21.929 56.9477H21.9626Z" fill="white"/>
</svg>
