<svg width="80" height="76" viewBox="0 0 80 76" fill="none" xmlns="http://www.w3.org/2000/svg">
<path d="M44.4745 38.7982C45.6369 38.7982 46.583 37.852 46.583 36.6897C46.583 35.5273 45.6369 34.5812 44.4745 34.5812C43.3121 34.5812 42.366 35.5273 42.366 36.6897C42.366 37.852 43.3121 38.7982 44.4745 38.7982Z" fill="white"/>
<path d="M15.2801 53.1791C15.2801 53.1791 15.0908 53.0439 14.9557 52.9899C14.9287 52.9899 14.9016 52.9899 14.8746 52.9628C14.7394 52.9088 14.6043 52.8818 14.0907 52.8007C13.523 52.8007 12.9824 53.0439 12.6039 53.4224C12.1984 53.8008 11.9822 54.3685 11.9822 54.9091C11.9822 55.4498 12.1984 56.0175 12.6039 56.4229C13.0094 56.8284 13.523 57.0447 14.0907 57.0447C14.1447 57.0447 14.361 57.0447 14.415 57.0176C14.4691 56.9906 14.6313 56.9636 14.6854 56.9636C14.6854 56.9636 14.9287 56.8825 15.0638 56.8284C15.1449 56.8014 15.199 56.7473 15.2801 56.6932C15.3612 56.6392 15.5504 56.477 15.6045 56.4229C15.9829 56.0175 16.2262 55.4768 16.2262 54.9362C16.2262 54.4766 16.091 54.0441 15.7126 53.6116C15.6044 53.4494 15.4693 53.3143 15.3071 53.2061L15.2801 53.1791Z" fill="white"/>
<path d="M12.6039 44.3126C12.1984 44.691 11.9822 45.2587 11.9822 45.7993C11.9822 46.34 12.1984 46.8806 12.6039 47.2861C13.0094 47.6916 13.523 47.9078 14.0907 47.9078C14.1447 47.9078 14.334 47.9078 14.388 47.9078C14.4691 47.9078 14.6313 47.8538 14.7124 47.8538C14.9016 47.7997 15.1179 47.7186 15.2801 47.5834H15.3071C15.3071 47.5834 15.5504 47.3672 15.6045 47.3131C15.9829 46.9076 16.2262 46.367 16.2262 45.8264C16.2262 45.2857 16.0099 44.7451 15.6045 44.3126C14.8476 43.5827 13.3338 43.6097 12.6309 44.3126H12.6039Z" fill="white"/>
<path d="M29.2826 43.6909C28.1203 43.6909 27.1741 44.637 27.1741 45.7994C27.1741 46.9618 28.1203 47.9079 29.2826 47.9079C30.445 47.9079 31.3911 46.9618 31.3911 45.7994C31.3911 44.637 30.445 43.6909 29.2826 43.6909Z" fill="white"/>
<path d="M16.037 35.8787C15.9288 35.6083 15.7666 35.3921 15.5774 35.2029C15.3882 35.0136 15.199 34.8785 14.9557 34.7703C14.8746 34.7433 14.7935 34.7433 14.7124 34.7163C14.5502 34.6622 14.388 34.6352 14.2258 34.6082C14.1988 34.6082 14.1718 34.6082 14.1177 34.6082C13.9825 34.6082 13.8474 34.6622 13.7122 34.6893C13.6311 34.6893 13.5771 34.6893 13.496 34.7433C13.2527 34.8244 13.0364 34.9596 12.8202 35.1218C12.8202 35.1218 12.7931 35.1218 12.7661 35.1218C12.7661 35.1218 12.6309 35.2569 12.5499 35.338C12.4958 35.3921 12.4417 35.4461 12.3877 35.5002C12.3877 35.5002 12.3606 35.5543 12.3336 35.5813C12.2795 35.6624 12.2255 35.7705 12.1984 35.8787V35.9327L12.1444 35.9868C12.1173 36.0949 12.0633 36.2301 12.0092 36.7166C12.0092 36.7166 12.0633 36.9059 12.0633 37.014C12.0633 37.2032 12.0903 37.3654 12.1714 37.5276C12.4958 38.2845 13.2527 38.8251 14.1177 38.8251C15.2801 38.8251 16.2262 37.879 16.2262 36.7166C16.2262 36.4463 16.1721 36.176 16.064 35.9057L16.037 35.8787Z" fill="white"/>
<path d="M69.8845 38.5548V27.2555V17.7943C69.8845 12.2798 65.7486 7.71144 60.4233 7.06268V5.49483C60.4233 2.65648 58.1256 0.358765 55.2873 0.358765C52.4489 0.358765 50.1512 2.65648 50.1512 5.49483V6.98158H20.6324V5.49483C20.6324 2.65648 18.3347 0.358765 15.4963 0.358765C12.658 0.358765 10.3603 2.65648 10.3603 5.49483V7.06268C5.03499 7.73847 0.899109 12.3069 0.899109 17.7943V27.2555V55.6931C0.899109 61.6671 5.76485 66.5328 11.7119 66.5328H41.9606C45.5558 72.2095 51.8813 75.994 59.0988 75.994C70.29 75.994 79.3997 66.8843 79.3997 55.6931C79.3997 48.4755 75.6153 42.1501 69.9386 38.5548H69.8845ZM52.8274 5.46779C52.8274 4.1162 53.9357 3.03492 55.2603 3.03492C56.5848 3.03492 57.6931 4.14323 57.6931 5.46779V11.1445C57.6931 12.4961 56.5848 13.5774 55.2603 13.5774C53.9357 13.5774 52.8274 12.4691 52.8274 11.1445V5.46779ZM13.0364 5.46779C13.0364 4.1162 14.1177 3.03492 15.4693 3.03492C16.8209 3.03492 17.9022 4.14323 17.9022 5.46779V11.1445C17.9022 12.4961 16.8209 13.5774 15.4693 13.5774C14.1177 13.5774 13.0364 12.4691 13.0364 11.1445V5.46779ZM10.3332 9.76587V11.1445C10.3332 13.9828 12.6309 16.2806 15.4693 16.2806C18.3076 16.2806 20.6054 13.9828 20.6054 11.1445V9.65774H50.1242V11.1445C50.1242 13.9828 52.4219 16.2806 55.2603 16.2806C58.0986 16.2806 60.3963 13.9828 60.3963 11.1445V9.76587C64.2348 10.4146 67.1543 13.7666 67.1543 17.7673V25.8769H3.54823V17.7673C3.54823 13.7396 6.46768 10.3876 10.3062 9.76587H10.3332ZM11.6848 63.8026C7.19754 63.8026 3.57527 60.1533 3.57527 55.666V28.5801H67.2084V37.041C67.2084 37.041 67.1273 37.041 67.1002 37.014C66.6947 36.8248 66.2622 36.6896 65.8297 36.5274C65.6135 36.4463 65.3972 36.3652 65.181 36.2842C64.8025 36.176 64.4241 36.0679 64.0186 35.9868C63.7212 35.9057 63.4509 35.8246 63.1536 35.7705C63.0454 35.7705 62.9373 35.7435 62.8292 35.7165C61.5857 35.4732 60.3152 35.338 59.0447 35.338C52.0435 35.338 45.8532 38.9062 42.2038 44.3126C40.0143 47.5564 38.7167 51.449 38.7167 55.666C38.7167 58.5584 39.3385 61.3157 40.4197 63.8026H11.6308H11.6848ZM59.0717 73.2638C52.5571 73.2638 46.8804 69.6956 43.8258 64.4244C43.0689 63.1268 42.5012 61.7482 42.1227 60.3425C42.1227 60.2344 42.0687 60.1533 42.0417 60.0452C41.8795 59.4505 41.7713 58.8288 41.6632 58.2341C41.6632 58.0989 41.6091 57.9637 41.6091 57.8286C41.528 57.1258 41.474 56.3959 41.474 55.666C41.474 52.4222 42.366 49.4217 43.8798 46.7996C46.9344 41.5824 52.5841 38.0683 59.0717 38.0683C59.2339 38.0683 59.4232 38.0683 59.5854 38.0683C60.099 38.0683 60.5855 38.1223 61.0991 38.1764C61.3695 38.2034 61.6128 38.2575 61.856 38.2845C62.3156 38.3656 62.7751 38.4467 63.2347 38.5548C63.4509 38.6089 63.6672 38.663 63.8834 38.717C64.4781 38.8792 65.0458 39.0684 65.6135 39.3117C65.6675 39.3117 65.7486 39.3658 65.8027 39.3928C66.4515 39.6631 67.0732 39.9875 67.6949 40.3389C73.0202 43.3665 76.6425 49.0973 76.6425 55.639C76.6425 65.3434 68.7492 73.2368 59.0447 73.2368L59.0717 73.2638Z" fill="white"/>
<path d="M66.6136 54.3414H60.3963V44.3396C60.3963 43.5827 59.7746 42.988 59.0177 42.988C58.2608 42.988 57.6661 43.6098 57.6661 44.3396V55.7201C57.6661 56.477 58.2878 57.0987 59.0447 57.0987H66.6136C67.3705 57.0987 67.9923 56.477 67.9923 55.7201C67.9923 54.9632 67.3705 54.3685 66.6136 54.3685V54.3414Z" fill="white"/>
<path d="M29.2826 52.8007C28.1203 52.8007 27.1741 53.7468 27.1741 54.9091C27.1741 56.0715 28.1203 57.0176 29.2826 57.0176C30.445 57.0176 31.3911 56.0715 31.3911 54.9091C31.3911 53.7468 30.445 52.8007 29.2826 52.8007Z" fill="white"/>
<path d="M29.2826 34.5812C28.1203 34.5812 27.1741 35.5273 27.1741 36.6897C27.1741 37.852 28.1203 38.7982 29.2826 38.7982C30.445 38.7982 31.3911 37.852 31.3911 36.6897C31.3911 35.5273 30.445 34.5812 29.2826 34.5812Z" fill="white"/>
</svg>
