<svg width="54" height="100" viewBox="0 0 54 100" fill="none" xmlns="http://www.w3.org/2000/svg">
<path d="M34.317 100C31.1797 100 28.4304 98.4425 26.7809 96.0903C25.1313 98.4425 22.3497 100 19.2447 100C14.3931 100 10.4148 96.281 10.0913 91.6084V71.7737C4.17238 69.9936 0.0323441 64.59 0.0323441 58.4234V41.1316H0C0 33.4393 6.37178 27.1774 14.199 27.1774H22.3174C16.6572 25.3338 12.5818 20.089 12.5818 13.9224C12.5818 6.26192 18.9536 0 26.7809 0C34.6081 0 40.9799 6.26192 40.9799 13.9542C40.9799 20.1208 36.9046 25.3655 31.2444 27.2092H39.3627C47.19 27.2092 53.5618 33.4711 53.5618 41.1634V58.4552C53.5618 64.6217 49.3894 70.0254 43.5028 71.8055V91.0044C43.5028 95.9631 39.3951 100 34.3494 100H34.317ZM28.3981 91.0044C28.3981 94.2149 31.0503 96.8214 34.317 96.8214C37.5838 96.8214 40.236 94.2149 40.236 91.0044V41.1316H43.4704V68.4043C47.5134 66.7832 50.295 62.8417 50.295 58.4234V41.1316C50.295 35.1875 45.3787 30.356 39.3304 30.356H14.199C10.2207 30.356 6.75991 32.4539 4.81927 35.569C3.78426 37.2537 3.23441 39.1608 3.20206 41.0998V58.4234C3.20206 62.8417 5.98365 66.7514 10.0267 68.4043V41.1316H13.2611V90.9727C13.2611 94.1831 15.9133 96.7896 19.18 96.7896C22.4468 96.7896 25.099 94.1831 25.099 90.9727V70.7883H28.3334V90.9727L28.3981 91.0044ZM26.7809 3.17864C20.7325 3.17864 15.8162 8.01017 15.8162 13.9542C15.8162 19.8983 20.7325 24.7298 26.7809 24.7298C32.8292 24.7298 37.7455 19.8983 37.7455 13.9542C37.7455 8.01017 32.8292 3.17864 26.7809 3.17864Z" fill="white"/>
</svg>
