<svg width="185" height="63" viewBox="0 0 185 63" fill="none" xmlns="http://www.w3.org/2000/svg">
<g clip-path="url(#clip0_21_411)">
<path d="M9.25816 3.30933H0V8.9583H9.25816V3.30933Z" fill="white"/>
<path d="M87.99 24.9695H76.1809C76.3918 25.729 76.5618 26.5224 76.6979 27.3498H87.9832V24.9695H87.99Z" fill="white"/>
<path d="M82.7249 36.7285H84.0853V41.6587H82.7249V36.7285ZM84.0853 35.9622H82.7249V34.8433H84.0853V35.9622Z" fill="white"/>
<path d="M84.7724 36.7284H86.0649V37.4133H86.0921C86.439 36.864 87.0308 36.5928 87.6022 36.5928C89.0443 36.5928 89.4117 37.4066 89.4117 38.6272V41.6585H88.0512V38.8714C88.0512 38.0576 87.8131 37.6575 87.1805 37.6575C86.4458 37.6575 86.1329 38.0711 86.1329 39.068V41.6518H84.7724V36.7216V36.7284Z" fill="white"/>
<path d="M91.7857 36.7286H92.7789V37.6373H91.7857V40.0786C91.7857 40.5397 91.9014 40.6483 92.3571 40.6483C92.5 40.6483 92.636 40.6415 92.7789 40.6076V41.6655C92.5476 41.7062 92.2551 41.7129 91.983 41.7129C91.1531 41.7129 90.4252 41.5231 90.4252 40.5397V37.6305H89.6021V36.7218H90.4252V35.2434H91.7857V36.7218V36.7286Z" fill="white"/>
<path d="M96.3842 38.668C96.2618 37.983 95.9625 37.6168 95.3026 37.6168C94.4387 37.6168 94.1938 38.2814 94.1734 38.668H96.3842ZM94.1734 39.5292C94.2142 40.3905 94.6292 40.777 95.391 40.777C95.9352 40.777 96.3774 40.4447 96.459 40.1395H97.6563C97.2753 41.306 96.459 41.801 95.3434 41.801C93.7857 41.801 92.8197 40.7363 92.8197 39.2037C92.8197 37.6711 93.8401 36.5996 95.3434 36.5996C97.0236 36.5996 97.8399 38.0102 97.7447 39.5292H94.1734Z" fill="white"/>
<path d="M98.1664 36.7284H99.4589V37.6439H99.4793C99.731 37.0268 100.398 36.5928 101.057 36.5928C101.153 36.5928 101.268 36.6131 101.357 36.6402V37.9016C101.234 37.8745 101.03 37.8541 100.867 37.8541C99.8739 37.8541 99.5269 38.573 99.5269 39.441V41.6653H98.1664V36.7352V36.7284Z" fill="white"/>
<path d="M101.683 36.7284H102.976V37.4133H103.003C103.35 36.864 103.942 36.5928 104.513 36.5928C105.955 36.5928 106.323 37.4066 106.323 38.6272V41.6585H104.962V38.8714C104.962 38.0576 104.724 37.6575 104.091 37.6575C103.357 37.6575 103.037 38.0711 103.037 39.068V41.6518H101.677V36.7216L101.683 36.7284Z" fill="white"/>
<path d="M110.057 39.2445C109.826 39.448 109.35 39.4547 108.928 39.5293C108.506 39.6175 108.125 39.7599 108.125 40.255C108.125 40.75 108.52 40.8856 108.955 40.8856C110.016 40.8856 110.057 40.0447 110.057 39.7531V39.2445ZM106.921 38.2409C106.996 36.9727 108.139 36.5862 109.248 36.5862C110.234 36.5862 111.418 36.8032 111.418 37.9899V40.5533C111.418 41.0009 111.465 41.4485 111.595 41.6519H110.214C110.166 41.496 110.125 41.34 110.118 41.1772C109.69 41.6248 109.057 41.7876 108.452 41.7876C107.513 41.7876 106.765 41.3197 106.765 40.3092C106.765 39.1903 107.608 38.9258 108.452 38.8105C109.282 38.6884 110.057 38.7156 110.057 38.1595C110.057 37.5763 109.656 37.4949 109.18 37.4949C108.663 37.4949 108.329 37.7051 108.282 38.2409H106.921Z" fill="white"/>
<path d="M113.812 36.7286H114.805V37.6373H113.812V40.0786C113.812 40.5397 113.928 40.6483 114.384 40.6483C114.526 40.6483 114.662 40.6415 114.805 40.6076V41.6655C114.574 41.7062 114.275 41.7129 114.009 41.7129C113.18 41.7129 112.452 41.5231 112.452 40.5397V37.6305H111.629V36.7218H112.452V35.2434H113.812V36.7218V36.7286Z" fill="white"/>
<path d="M115.118 36.7285H116.479V41.6587H115.118V36.7285ZM116.479 35.9622H115.118V34.8433H116.479V35.9622Z" fill="white"/>
<path d="M119.567 40.777C120.499 40.777 120.771 39.9836 120.771 39.2037C120.771 38.4238 120.492 37.6168 119.567 37.6168C118.642 37.6168 118.37 38.4103 118.37 39.2037C118.37 39.9971 118.649 40.777 119.567 40.777ZM119.567 36.5996C121.125 36.5996 122.132 37.6304 122.132 39.2037C122.132 40.777 121.125 41.801 119.567 41.801C118.009 41.801 117.009 40.7702 117.009 39.2037C117.009 37.6372 118.016 36.5996 119.567 36.5996Z" fill="white"/>
<path d="M122.635 36.7284H123.927V37.4133H123.955C124.302 36.864 124.893 36.5928 125.465 36.5928C126.907 36.5928 127.274 37.4066 127.274 38.6272V41.6585H125.914V38.8714C125.914 38.0576 125.676 37.6575 125.043 37.6575C124.308 37.6575 123.989 38.0711 123.989 39.068V41.6518H122.628V36.7216L122.635 36.7284Z" fill="white"/>
<path d="M131.009 39.2445C130.778 39.448 130.301 39.4547 129.88 39.5293C129.458 39.6175 129.077 39.7599 129.077 40.255C129.077 40.75 129.471 40.8856 129.907 40.8856C130.968 40.8856 131.009 40.0447 131.009 39.7531V39.2445ZM127.873 38.2409C127.948 36.9727 129.09 36.5862 130.199 36.5862C131.186 36.5862 132.369 36.8032 132.369 37.9899V40.5533C132.369 41.0009 132.417 41.4485 132.539 41.6519H131.158C131.111 41.496 131.07 41.34 131.063 41.1772C130.635 41.6248 130.002 41.7876 129.403 41.7876C128.465 41.7876 127.716 41.3197 127.716 40.3092C127.716 39.1903 128.56 38.9258 129.403 38.8105C130.233 38.6884 131.009 38.7156 131.009 38.1595C131.009 37.5763 130.607 37.4949 130.131 37.4949C129.614 37.4949 129.281 37.7051 129.233 38.2409H127.873Z" fill="white"/>
<path d="M134.444 34.8501H133.084V41.6587H134.444V34.8501Z" fill="white"/>
<path d="M140.491 39.2445C140.26 39.448 139.784 39.4547 139.362 39.5293C138.94 39.6175 138.56 39.7599 138.56 40.255C138.56 40.75 138.954 40.8856 139.389 40.8856C140.451 40.8856 140.491 40.0447 140.491 39.7531V39.2445ZM137.355 38.2409C137.43 36.9727 138.573 36.5862 139.682 36.5862C140.668 36.5862 141.852 36.8032 141.852 37.9899V40.5533C141.852 41.0009 141.9 41.4485 142.029 41.6519H140.648C140.6 41.496 140.559 41.34 140.553 41.1772C140.124 41.6248 139.491 41.7876 138.886 41.7876C137.947 41.7876 137.199 41.3197 137.199 40.3092C137.199 39.1903 138.043 38.9258 138.886 38.8105C139.716 38.6884 140.491 38.7156 140.491 38.1595C140.491 37.5763 140.09 37.4949 139.614 37.4949C139.097 37.4949 138.764 37.7051 138.716 38.2409H137.355Z" fill="white"/>
<path d="M143.573 40.0581C143.587 40.6481 144.083 40.8855 144.614 40.8855C145.008 40.8855 145.505 40.7295 145.505 40.2548C145.505 39.8479 144.94 39.7055 143.968 39.4885C143.185 39.3189 142.396 39.0409 142.396 38.1729C142.396 36.9115 143.485 36.5928 144.553 36.5928C145.621 36.5928 146.627 36.9522 146.736 38.1661H145.444C145.403 37.6439 145.001 37.5015 144.519 37.5015C144.212 37.5015 143.763 37.5557 143.763 37.9559C143.763 38.4441 144.532 38.5052 145.301 38.6883C146.097 38.8714 146.872 39.1562 146.872 40.0717C146.872 41.3669 145.743 41.7874 144.614 41.7874C143.485 41.7874 142.342 41.3602 142.287 40.0513H143.58L143.573 40.0581Z" fill="white"/>
<path d="M148.328 40.0581C148.335 40.6481 148.838 40.8855 149.369 40.8855C149.763 40.8855 150.26 40.7295 150.26 40.2548C150.26 39.8479 149.695 39.7055 148.722 39.4885C147.94 39.3189 147.151 39.0409 147.151 38.1729C147.151 36.9115 148.239 36.5928 149.307 36.5928C150.375 36.5928 151.382 36.9522 151.491 38.1661H150.199C150.158 37.6439 149.756 37.5015 149.273 37.5015C148.967 37.5015 148.518 37.5557 148.518 37.9559C148.518 38.4441 149.287 38.5052 150.056 38.6883C150.852 38.8714 151.627 39.1562 151.627 40.0717C151.627 41.3669 150.498 41.7874 149.369 41.7874C148.239 41.7874 147.097 41.3602 147.042 40.0513H148.335L148.328 40.0581Z" fill="white"/>
<path d="M154.437 40.777C155.362 40.777 155.641 39.9836 155.641 39.2037C155.641 38.4238 155.362 37.6168 154.437 37.6168C153.511 37.6168 153.239 38.4103 153.239 39.2037C153.239 39.9971 153.518 40.777 154.437 40.777ZM154.437 36.5996C155.994 36.5996 157.001 37.6304 157.001 39.2037C157.001 40.777 155.994 41.801 154.437 41.801C152.879 41.801 151.879 40.7702 151.879 39.2037C151.879 37.6372 152.886 36.5996 154.437 36.5996Z" fill="white"/>
<path d="M160.872 38.4647C160.783 37.9154 160.429 37.617 159.865 37.617C158.994 37.617 158.708 38.4918 158.708 39.2174C158.708 39.943 158.987 40.7704 159.838 40.7704C160.47 40.7704 160.831 40.3702 160.919 39.7667H162.232C162.062 41.0755 161.151 41.7876 159.851 41.7876C158.362 41.7876 157.355 40.7364 157.355 39.2581C157.355 37.7797 158.273 36.5862 159.878 36.5862C161.048 36.5862 162.116 37.1965 162.205 38.4579H160.878L160.872 38.4647Z" fill="white"/>
<path d="M162.654 36.7285H164.014V41.6587H162.654V36.7285ZM164.014 35.9622H162.654V34.8433H164.014V35.9622Z" fill="white"/>
<path d="M167.79 39.2445C167.558 39.448 167.082 39.4547 166.661 39.5293C166.239 39.6175 165.858 39.7599 165.858 40.255C165.858 40.75 166.252 40.8856 166.688 40.8856C167.749 40.8856 167.79 40.0447 167.79 39.7531V39.2445ZM164.654 38.2409C164.729 36.9727 165.871 36.5862 166.98 36.5862C167.967 36.5862 169.15 36.8032 169.15 37.9899V40.5533C169.15 41.0009 169.198 41.4485 169.327 41.6519H167.946C167.899 41.496 167.858 41.34 167.851 41.1772C167.422 41.6248 166.79 41.7876 166.184 41.7876C165.246 41.7876 164.497 41.3197 164.497 40.3092C164.497 39.1903 165.341 38.9258 166.184 38.8105C167.014 38.6884 167.79 38.7156 167.79 38.1595C167.79 37.5763 167.388 37.4949 166.912 37.4949C166.395 37.4949 166.062 37.7051 166.014 38.2409H164.654Z" fill="white"/>
<path d="M171.545 36.7286H172.538V37.6373H171.545V40.0786C171.545 40.5397 171.66 40.6483 172.116 40.6483C172.259 40.6483 172.395 40.6415 172.538 40.6076V41.6655C172.307 41.7062 172.014 41.7129 171.742 41.7129C170.912 41.7129 170.184 41.5231 170.184 40.5397V37.6305H169.361V36.7218H170.184V35.2434H171.545V36.7218V36.7286Z" fill="white"/>
<path d="M172.844 36.7285H174.204V41.6587H172.844V36.7285ZM174.204 35.9622H172.844V34.8433H174.204V35.9622Z" fill="white"/>
<path d="M177.293 40.777C178.225 40.777 178.497 39.9836 178.497 39.2037C178.497 38.4238 178.218 37.6168 177.293 37.6168C176.368 37.6168 176.096 38.4103 176.096 39.2037C176.096 39.9971 176.374 40.777 177.293 40.777ZM177.293 36.5996C178.851 36.5996 179.857 37.6304 179.857 39.2037C179.857 40.777 178.851 41.801 177.293 41.801C175.735 41.801 174.735 40.7702 174.735 39.2037C174.735 37.6372 175.742 36.5996 177.293 36.5996Z" fill="white"/>
<path d="M180.361 36.7284H181.653V37.4133H181.68C182.027 36.864 182.619 36.5928 183.191 36.5928C184.633 36.5928 185 37.4066 185 38.6272V41.6585H183.639V38.8714C183.639 38.0576 183.401 37.6575 182.769 37.6575C182.034 37.6575 181.721 38.0711 181.721 39.068V41.6518H180.361V36.7216V36.7284Z" fill="white"/>
<path d="M82.9765 45.6529H82.1602V44.7442H82.9765V44.3644C82.9765 43.4964 83.5207 42.8657 84.6363 42.8657C84.8744 42.8657 85.1261 42.8928 85.3506 42.9064V43.9169C85.1873 43.8965 85.0241 43.8897 84.854 43.8897C84.4935 43.8897 84.337 44.0457 84.337 44.4526V44.751H85.2758V45.6597H84.337V49.6879H82.9765V45.6597V45.6529Z" fill="white"/>
<path d="M87.8879 48.7929C88.8131 48.7929 89.092 47.9994 89.092 47.2196C89.092 46.4397 88.8131 45.6395 87.8879 45.6395C86.9628 45.6395 86.6907 46.4329 86.6907 47.2196C86.6907 48.0062 86.9696 48.7929 87.8879 48.7929ZM87.8879 44.6155C89.4457 44.6155 90.4525 45.6463 90.4525 47.2196C90.4525 48.7929 89.4457 49.8169 87.8879 49.8169C86.3302 49.8169 85.3302 48.7861 85.3302 47.2196C85.3302 45.653 86.337 44.6155 87.8879 44.6155Z" fill="white"/>
<path d="M90.9558 44.7511H92.2483V45.6666H92.2687C92.5204 45.0495 93.1871 44.6155 93.8469 44.6155C93.9421 44.6155 94.0578 44.6358 94.1462 44.6629V45.9243C94.0237 45.8972 93.8197 45.8768 93.6564 45.8768C92.6633 45.8768 92.3163 46.5889 92.3163 47.4637V49.688H90.9558V44.7579V44.7511Z" fill="white"/>
<path d="M100.248 47.2263C100.248 46.4464 99.9351 45.6326 99.0644 45.6326C98.1937 45.6326 97.8875 46.4261 97.8875 47.2263C97.8875 48.0265 98.1937 48.7928 99.0712 48.7928C99.9487 48.7928 100.248 48.0333 100.248 47.2263ZM96.5747 44.7443H97.8671V45.375H97.8875C98.2141 44.8528 98.7447 44.6086 99.3569 44.6086C100.908 44.6086 101.609 45.8564 101.609 47.2602C101.609 48.5758 100.881 49.8033 99.4385 49.8033C98.8467 49.8033 98.2821 49.5456 97.9556 49.0573H97.9352V51.4037H96.5747V44.7375V44.7443Z" fill="white"/>
<path d="M106.683 49.6811H105.391V48.9962H105.363C105.023 49.5455 104.425 49.8167 103.853 49.8167C102.411 49.8167 102.044 49.003 102.044 47.7823V44.751H103.404V47.5382C103.404 48.3519 103.642 48.7521 104.275 48.7521C105.01 48.7521 105.329 48.3384 105.329 47.3415V44.7578H106.69V49.6879L106.683 49.6811Z" fill="white"/>
<path d="M109.812 45.6394C109.01 45.6394 108.656 46.3921 108.656 47.2195C108.656 48.0468 109.01 48.7928 109.812 48.7928C110.615 48.7928 110.969 48.04 110.969 47.2195C110.969 46.3989 110.615 45.6394 109.812 45.6394ZM107.343 42.8726H108.703V45.3546H108.724C109.057 44.846 109.669 44.6222 110.282 44.6222C111.268 44.6222 112.329 45.4156 112.329 47.2195C112.329 49.0234 111.268 49.8236 110.282 49.8236C109.554 49.8236 108.948 49.6066 108.656 49.0573H108.635V49.6879H107.343V42.8793V42.8726Z" fill="white"/>
<path d="M114.207 42.8657H112.846V49.6743H114.207V42.8657Z" fill="white"/>
<path d="M114.935 44.751H116.295V49.6811H114.935V44.751ZM116.295 43.9847H114.935V42.8657H116.295V43.9847Z" fill="white"/>
<path d="M120.349 46.4871C120.261 45.9378 119.907 45.6394 119.343 45.6394C118.472 45.6394 118.186 46.521 118.186 47.2399C118.186 47.9587 118.465 48.7928 119.315 48.7928C119.948 48.7928 120.309 48.3927 120.397 47.7892H121.703C121.533 49.098 120.621 49.81 119.322 49.81C117.832 49.81 116.826 48.7589 116.826 47.2805C116.826 45.8022 117.744 44.6086 119.349 44.6086C120.519 44.6086 121.587 45.219 121.676 46.4803H120.343L120.349 46.4871Z" fill="white"/>
<path d="M128.05 47.2263C128.05 46.4464 127.737 45.6326 126.866 45.6326C125.995 45.6326 125.689 46.4261 125.689 47.2263C125.689 48.0265 125.995 48.7928 126.873 48.7928C127.75 48.7928 128.05 48.0333 128.05 47.2263ZM124.376 44.7443H125.669V45.375H125.689C126.016 44.8528 126.546 44.6086 127.159 44.6086C128.71 44.6086 129.41 45.8564 129.41 47.2602C129.41 48.5758 128.682 49.8033 127.24 49.8033C126.648 49.8033 126.084 49.5456 125.757 49.0573H125.737V51.4037H124.376V44.7375V44.7443Z" fill="white"/>
<path d="M132.927 47.267C132.696 47.4636 132.22 47.4772 131.798 47.5518C131.376 47.64 130.995 47.7824 130.995 48.2774C130.995 48.7725 131.39 48.9081 131.825 48.9081C132.886 48.9081 132.927 48.0672 132.927 47.7688V47.267ZM129.791 46.2633C129.866 44.9952 131.009 44.6086 132.118 44.6086C133.104 44.6086 134.288 44.8256 134.288 46.0124V48.5758C134.288 49.0234 134.335 49.471 134.464 49.6744H133.084C133.036 49.5184 132.995 49.3625 132.988 49.1997C132.56 49.6473 131.927 49.81 131.322 49.81C130.383 49.81 129.635 49.3421 129.635 48.3317C129.635 47.2127 130.478 46.9483 131.322 46.833C132.152 46.7109 132.927 46.738 132.927 46.1819C132.927 45.5987 132.526 45.5106 132.05 45.5106C131.533 45.5106 131.199 45.7208 131.152 46.2565H129.791V46.2633Z" fill="white"/>
<path d="M134.954 44.7511H136.247V45.6666H136.267C136.512 45.0495 137.185 44.6155 137.845 44.6155C137.941 44.6155 138.056 44.6358 138.145 44.6629V45.9243C138.022 45.8972 137.818 45.8768 137.655 45.8768C136.662 45.8768 136.315 46.5889 136.315 47.4637V49.688H134.954V44.7579V44.7511Z" fill="white"/>
<path d="M140.022 44.751H141.015V45.6597H140.022V48.1011C140.022 48.5622 140.138 48.6707 140.593 48.6707C140.736 48.6707 140.872 48.6639 141.015 48.63V49.6879C140.784 49.7286 140.485 49.7354 140.219 49.7354C139.389 49.7354 138.662 49.5455 138.662 48.5622V45.653H137.839V44.7442H138.662V43.2659H140.022V44.7442V44.751Z" fill="white"/>
<path d="M141.321 44.751H142.682V49.6811H141.321V44.751ZM142.682 43.9847H141.321V42.8657H142.682V43.9847Z" fill="white"/>
<path d="M146.743 46.4871C146.654 45.9378 146.301 45.6394 145.736 45.6394C144.865 45.6394 144.58 46.521 144.58 47.2399C144.58 47.9587 144.859 48.7928 145.709 48.7928C146.342 48.7928 146.702 48.3927 146.791 47.7892H148.103C147.933 49.098 147.022 49.81 145.723 49.81C144.233 49.81 143.226 48.7589 143.226 47.2805C143.226 45.8022 144.144 44.6086 145.75 44.6086C146.92 44.6086 147.988 45.219 148.076 46.4803H146.743V46.4871Z" fill="white"/>
<path d="M148.525 44.751H149.886V49.6811H148.525V44.751ZM149.886 43.9847H148.525V42.8657H149.886V43.9847Z" fill="white"/>
<path d="M154.246 47.2263C154.246 46.4464 153.933 45.6326 153.062 45.6326C152.192 45.6326 151.886 46.4261 151.886 47.2263C151.886 48.0265 152.192 48.7928 153.069 48.7928C153.947 48.7928 154.246 48.0333 154.246 47.2263ZM150.573 44.7443H151.865V45.375H151.886C152.212 44.8528 152.749 44.6086 153.362 44.6086C154.913 44.6086 155.613 45.8564 155.613 47.2602C155.613 48.5758 154.885 49.8033 153.443 49.8033C152.852 49.8033 152.287 49.5456 151.96 49.0573H151.94V51.4037H150.579V44.7375L150.573 44.7443Z" fill="white"/>
<path d="M159.123 47.267C158.892 47.4636 158.416 47.4772 157.994 47.5518C157.572 47.64 157.191 47.7824 157.191 48.2774C157.191 48.7725 157.586 48.9081 158.021 48.9081C159.083 48.9081 159.123 48.0672 159.123 47.7688V47.267ZM155.987 46.2633C156.062 44.9952 157.205 44.6086 158.314 44.6086C159.3 44.6086 160.484 44.8256 160.484 46.0124V48.5758C160.484 49.0234 160.531 49.471 160.661 49.6744H159.28C159.232 49.5184 159.191 49.3625 159.185 49.1997C158.756 49.6473 158.123 49.81 157.518 49.81C156.579 49.81 155.831 49.3421 155.831 48.3317C155.831 47.2127 156.674 46.9483 157.518 46.833C158.348 46.7109 159.123 46.738 159.123 46.1819C159.123 45.5987 158.722 45.5106 158.246 45.5106C157.729 45.5106 157.396 45.7208 157.348 46.2565H155.987V46.2633Z" fill="white"/>
<path d="M162.878 44.751H163.872V45.6597H162.878V48.1011C162.878 48.5622 162.994 48.6707 163.45 48.6707C163.593 48.6707 163.729 48.6639 163.872 48.63V49.6879C163.64 49.7286 163.348 49.7354 163.076 49.7354C162.246 49.7354 161.518 49.5455 161.518 48.5622V45.653H160.695V44.7442H161.518V43.2659H162.878V44.7442V44.751Z" fill="white"/>
<path d="M164.178 44.751H165.538V49.6811H164.178V44.751ZM165.538 43.9847H164.178V42.8657H165.538V43.9847Z" fill="white"/>
<path d="M168.633 48.7929C169.558 48.7929 169.837 47.9994 169.837 47.2196C169.837 46.4397 169.558 45.6395 168.633 45.6395C167.708 45.6395 167.436 46.4329 167.436 47.2196C167.436 48.0062 167.715 48.7929 168.633 48.7929ZM168.633 44.6155C170.191 44.6155 171.198 45.6463 171.198 47.2196C171.198 48.7929 170.191 49.8169 168.633 49.8169C167.075 49.8169 166.082 48.7861 166.082 47.2196C166.082 45.653 167.089 44.6155 168.633 44.6155Z" fill="white"/>
<path d="M171.694 44.7511H172.987V45.436H173.014C173.361 44.8867 173.953 44.6155 174.524 44.6155C175.966 44.6155 176.334 45.4293 176.334 46.6499V49.6812H174.973V46.8941C174.973 46.0871 174.735 45.6802 174.102 45.6802C173.368 45.6802 173.055 46.0938 173.055 47.0907V49.6745H171.694V44.7443V44.7511Z" fill="white"/>
<path d="M77.7455 18.9L83.3303 15.4821C84.9493 14.5259 88.2213 12.3355 88.2213 7.79871C88.2213 2.76685 84.8676 0 79.9018 0C72.8477 0 71.2695 5.80495 71.2695 8.99225H73.8136C73.8136 7.45285 74.5075 2.38708 79.9018 2.38708C83.5208 2.38708 85.4527 4.7267 85.4527 7.79871C85.4527 10.8707 84.1806 12.105 82.6772 13.0205L75.1605 17.7471C74.5007 18.1812 73.9225 18.6694 73.4055 19.1984C73.8953 19.8494 74.3442 20.5615 74.7456 21.321C75.487 20.4869 76.4666 19.7477 77.7455 18.9Z" fill="white"/>
<path d="M9.25816 14.8989H0V30.3472V49.2946H9.25816V31.8391V14.8989ZM5.11546 31.2084C4.27875 31.0728 3.45566 30.9304 2.62575 30.7947C3.45566 30.9371 4.27875 31.0796 5.11546 31.2084Z" fill="white"/>
<path d="M77.0244 31.1609C74.0789 31.8255 70.9158 32.3951 67.5077 32.8562C67.3173 38.1458 64.4602 42.5673 59.991 42.5673C55.5218 42.5673 53.0253 39.5021 52.5423 34.1176C52.4879 33.5344 52.4539 32.9241 52.4539 32.2866C52.4539 25.3695 54.9708 21.877 59.991 21.877C65.0112 21.877 67.5213 26.4884 67.5213 32.2866C67.5213 32.4765 67.5077 32.6664 67.5009 32.8495C70.909 32.3883 74.0789 31.8119 77.0176 31.1541C76.9972 29.8249 76.8951 28.5432 76.6979 27.3429H70.494V26.1087C70.494 23.6538 71.46 21.1514 73.3987 19.1848C70.7933 15.7466 66.9567 13.8342 62.4263 13.8342C55.8211 13.8342 53.5082 17.13 52.1818 18.9745H52.0457V14.8853H43.1889V34.2804C43.461 34.2804 43.7399 34.2804 44.012 34.2804C46.0323 34.2804 47.9914 34.2464 49.9029 34.1922C47.9914 34.2464 46.0323 34.2804 44.012 34.2804C43.7399 34.2804 43.461 34.2804 43.1889 34.2804V47.5449C42.0189 46.9482 41.2026 45.558 41.2026 42.1604V34.26V24.9626C41.2026 17.781 36.9034 13.8274 26.6589 13.8274C14.0335 13.8274 11.9179 20.8123 11.8567 25.8171H20.4414C20.7747 23.5114 21.6319 21.0768 26.8562 21.0768C30.1622 21.0768 32.2097 22.1957 32.2097 24.6303C32.2097 26.6037 31.2846 26.936 28.7745 27.526C24.1896 28.6924 17.047 28.4957 13.2444 32.3476C11.673 33.9413 10.6595 36.2131 10.6595 39.5835C10.6595 46.5684 14.6253 50.3253 21.6319 50.3253C27.584 50.3253 30.5567 47.0295 32.3389 44.9205C32.407 45.9106 32.9988 48.1485 33.6586 49.2674H43.1753V62.9728H52.4266V45.185H52.5627C54.0864 47.6263 56.6578 50.3253 62.1474 50.3253C71.7321 50.3253 77.0176 42.2893 77.0176 31.6152C77.0176 31.4525 76.9972 31.3033 76.9972 31.1405L77.0244 31.1609ZM32.2301 34.0091V34.9992C32.2301 40.2006 29.3867 43.1031 24.693 43.1031C21.523 43.1031 19.6659 41.4552 19.6659 39.4139C19.6659 35.0263 23.9515 34.8636 28.2439 33.7853C29.618 33.4394 30.9921 33.0054 32.2301 32.3002V34.0159C33.7403 34.0905 35.2436 34.1515 36.7469 34.1922C35.2436 34.1447 33.7335 34.0905 32.2301 34.0159V34.0091Z" fill="white"/>
<path d="M84.7452 56.4832H85.7179L88.0172 62.8035H87.0784L86.4322 60.9115H83.9221L83.235 62.8035H82.3575L84.7452 56.4832ZM86.1601 60.213L85.1941 57.419L84.1738 60.213H86.1601Z" fill="white"/>
<path d="M89.9899 56.4832V60.3893C89.9899 60.8504 90.0783 61.2302 90.2484 61.5354C90.5069 61.9965 90.9422 62.2271 91.5545 62.2271C92.2891 62.2271 92.7857 61.9762 93.051 61.4811C93.1938 61.2099 93.2619 60.8504 93.2619 60.3893V56.4832H94.1326V60.0367C94.1326 60.8165 94.0306 61.4133 93.8197 61.8337C93.4319 62.6001 92.7041 62.9798 91.6293 62.9798C90.5545 62.9798 89.8266 62.6001 89.4389 61.8337C89.228 61.4133 89.126 60.8165 89.126 60.0367V56.4832H89.9967H89.9899Z" fill="white"/>
<path d="M96.2754 60.769C96.2958 61.1284 96.3774 61.42 96.5203 61.6438C96.7924 62.0642 97.2754 62.2745 97.9692 62.2745C98.2821 62.2745 98.561 62.227 98.8195 62.1388C99.3161 61.9625 99.561 61.6438 99.561 61.1826C99.561 60.8368 99.4589 60.5926 99.2481 60.4435C99.0372 60.301 98.7039 60.1722 98.2549 60.0705L97.425 59.8738C96.8808 59.745 96.4931 59.6093 96.2686 59.4534C95.8808 59.1889 95.6836 58.7956 95.6836 58.2666C95.6836 57.697 95.874 57.229 96.2618 56.8696C96.6495 56.5102 97.1869 56.3203 97.8944 56.3203C98.5406 56.3203 99.0916 56.4831 99.5406 56.8018C99.9963 57.1205 100.221 57.6359 100.221 58.3344H99.4113C99.3705 57.9953 99.2821 57.7376 99.146 57.5545C98.8943 57.2222 98.4658 57.0595 97.8672 57.0595C97.3842 57.0595 97.0305 57.168 96.8196 57.3782C96.6087 57.5884 96.4999 57.8394 96.4999 58.1174C96.4999 58.4294 96.6223 58.6531 96.874 58.7956C97.0373 58.8905 97.4114 58.999 97.9896 59.1414L98.8535 59.3449C99.2685 59.4398 99.5882 59.5754 99.8127 59.745C100.2 60.0433 100.398 60.4706 100.398 61.0334C100.398 61.7319 100.146 62.2338 99.6494 62.5389C99.1528 62.8373 98.5746 62.9933 97.9148 62.9933C97.1461 62.9933 96.5407 62.7898 96.1053 62.3897C95.67 61.9896 95.4591 61.4471 95.4659 60.769H96.2754Z" fill="white"/>
<path d="M106.486 56.4832V57.2359H104.35V62.8035H103.479V57.2359H101.343V56.4832H106.486Z" fill="white"/>
<path d="M107.649 56.483H110.533C111.01 56.483 111.397 56.5509 111.71 56.6933C112.295 56.9645 112.588 57.4596 112.588 58.1852C112.588 58.565 112.506 58.8769 112.35 59.1143C112.193 59.3584 111.975 59.5483 111.69 59.6975C111.935 59.7992 112.125 59.928 112.248 60.0908C112.37 60.2536 112.445 60.518 112.458 60.8842L112.486 61.7319C112.492 61.976 112.513 62.1524 112.547 62.2677C112.601 62.4711 112.69 62.5999 112.826 62.6542V62.7966H111.771C111.744 62.7424 111.717 62.6745 111.703 62.5864C111.69 62.4982 111.669 62.3355 111.663 62.0846L111.608 61.0266C111.588 60.613 111.438 60.3349 111.159 60.1925C111.003 60.1179 110.751 60.0772 110.411 60.0772H108.513V62.7898H107.656V56.4695L107.649 56.483ZM110.438 59.3787C110.833 59.3787 111.139 59.2974 111.37 59.1346C111.601 58.9719 111.71 58.687 111.71 58.2666C111.71 57.819 111.554 57.5071 111.234 57.3443C111.064 57.2561 110.833 57.2154 110.547 57.2154H108.506V59.3787H110.438Z" fill="white"/>
<path d="M116.037 56.4832H117.009L119.309 62.8035H118.37L117.724 60.9115H115.213L114.526 62.8035H113.649L116.037 56.4832ZM117.451 60.213L116.486 57.419L115.465 60.213H117.451Z" fill="white"/>
<path d="M120.356 56.4832H121.213V62.0508H124.397V62.8035H120.356V56.4832Z" fill="white"/>
<path d="M127.39 56.4832H128.363L130.662 62.8035H129.723L129.077 60.9115H126.567L125.88 62.8035H125.002L127.39 56.4832ZM128.805 60.213L127.839 57.419L126.818 60.213H128.805Z" fill="white"/>
<path d="M132.267 60.769C132.288 61.1284 132.369 61.42 132.512 61.6438C132.784 62.0642 133.267 62.2745 133.961 62.2745C134.274 62.2745 134.553 62.227 134.811 62.1388C135.308 61.9625 135.553 61.6438 135.553 61.1826C135.553 60.8368 135.451 60.5926 135.24 60.4435C135.029 60.301 134.696 60.1722 134.247 60.0705L133.417 59.8738C132.873 59.745 132.485 59.6093 132.26 59.4534C131.873 59.1889 131.675 58.7956 131.675 58.2666C131.675 57.697 131.866 57.229 132.254 56.8696C132.641 56.5102 133.179 56.3203 133.886 56.3203C134.532 56.3203 135.083 56.4831 135.532 56.8018C135.988 57.1205 136.213 57.6359 136.213 58.3344H135.403C135.362 57.9953 135.274 57.7376 135.138 57.5545C134.886 57.2222 134.458 57.0595 133.859 57.0595C133.376 57.0595 133.022 57.168 132.811 57.3782C132.601 57.5884 132.492 57.8394 132.492 58.1174C132.492 58.4294 132.614 58.6531 132.866 58.7956C133.029 58.8905 133.403 58.999 133.981 59.1414L134.845 59.3449C135.26 59.4398 135.58 59.5754 135.805 59.745C136.192 60.0433 136.39 60.4706 136.39 61.0334C136.39 61.7319 136.138 62.2338 135.641 62.5389C135.145 62.8373 134.566 62.9933 133.907 62.9933C133.138 62.9933 132.533 62.7898 132.097 62.3897C131.662 61.9896 131.451 61.4471 131.458 60.769H132.267Z" fill="white"/>
<path d="M138.063 56.4832H138.934V62.8035H138.063V56.4832Z" fill="white"/>
<path d="M142.437 56.4832H143.41L145.709 62.8035H144.77L144.124 60.9115H141.614L140.927 62.8035H140.049L142.437 56.4832ZM143.852 60.213L142.886 57.419L141.866 60.213H143.852Z" fill="white"/>
</g>
<defs>
<clipPath id="clip0_21_411">
<rect width="185" height="63" fill="white"/>
</clipPath>
</defs>
</svg>
