<svg width="106" height="100" viewBox="0 0 106 100" fill="none" xmlns="http://www.w3.org/2000/svg">
<g clip-path="url(#clip0_21_327)">
<path d="M87.853 100C85.0502 100 82.6018 98.6465 81.0554 96.5517C79.5091 98.6465 77.0606 100 74.2579 100C69.6188 100 65.8495 96.2295 65.8495 91.5888V69.2233L67.1381 68.9655C72.1316 67.9343 75.7398 63.5192 75.7398 58.4273V41.1215C75.7398 39.1879 75.1921 37.2543 74.1612 35.5785L72.6793 33.1292H76.1586C71.4551 31.1956 68.1046 26.5549 68.1046 21.1408C68.1046 14.0187 73.9035 8.21785 81.0232 8.21785C88.1429 8.21785 93.9418 14.0187 93.9418 21.1408C93.9418 26.5549 90.6236 31.1956 85.8878 33.1292H92.331C99.4507 33.1292 105.25 38.9301 105.25 46.0522V61.9078C105.25 67.5798 101.513 72.5749 96.1969 74.2507V91.5566C96.1969 96.1972 92.4277 99.9678 87.7886 99.9678L87.853 100ZM82.6662 91.5888C82.6662 94.457 84.9858 96.7773 87.853 96.7773C90.7202 96.7773 93.0398 94.457 93.0398 91.5888V46.0844H96.2614V70.8347C99.7407 69.32 102.092 65.8395 102.092 61.9401V46.0844C102.092 40.7348 97.7433 36.3841 92.3954 36.3841H78.1238C78.6714 37.8988 78.9936 39.5424 78.9936 41.1537V58.4595C78.9936 64.6149 74.9022 70.029 69.1033 71.8015V91.5888C69.1033 94.457 71.4228 96.7773 74.2901 96.7773C77.1573 96.7773 79.4768 94.457 79.4768 91.5888V73.2517H82.6984V91.5888H82.6662ZM81.0554 11.4405C75.7076 11.4405 71.3584 15.7912 71.3584 21.1408C71.3584 26.4905 75.7076 30.8411 81.0554 30.8411C86.4033 30.8411 90.7524 26.4905 90.7524 21.1408C90.7524 15.7912 86.4033 11.4405 81.0554 11.4405Z" fill="white"/>
<path d="M60.0828 100C57.0223 100 54.3161 98.4531 52.6731 96.1005C51.0301 98.4531 48.324 100 45.2634 100C42.2029 100 39.6579 98.5498 38.0148 96.3261C36.5007 98.5498 33.9556 100 31.0562 100C28.1568 100 25.805 98.6465 24.2586 96.5195C22.7123 98.6143 20.2638 100 17.4611 100C12.822 100 9.05269 96.2295 9.05269 91.5888V74.283C3.73705 72.6072 0 67.612 0 61.9401V46.0844C0 38.9623 5.79887 33.1615 12.9186 33.1615H19.3618C14.6583 31.2278 11.3078 26.5872 11.3078 21.1731C11.3078 14.0509 17.1067 8.25008 24.2264 8.25008C31.3461 8.25008 37.145 14.0509 37.145 21.1731C37.145 23.7512 36.3718 26.1682 35.0832 28.1663C36.694 27.5218 38.4336 27.1673 40.27 27.1673H48.0984C42.6217 25.2981 38.6592 20.0773 38.6592 13.9542C38.6592 6.25201 44.9091 0 52.6087 0C60.3083 0 66.5582 6.25201 66.5582 13.9542C66.5582 20.0773 62.5956 25.2981 57.1189 27.1673H64.9474C72.647 27.1673 78.8969 33.4193 78.8969 41.1215V58.4273C78.8969 64.5827 74.8055 69.9968 69.0066 71.7693V90.9442C69.0066 95.9072 64.9474 99.9678 59.9861 99.9678L60.0828 100ZM54.2839 90.9765C54.2839 94.1669 56.8934 96.7773 60.0828 96.7773C63.2722 96.7773 65.8817 94.1669 65.8817 90.9765V41.1537H69.1032V68.3854C73.0658 66.7419 75.772 62.8424 75.772 58.4596V41.1537C75.772 35.224 70.9396 30.4222 65.044 30.4222H40.3344C36.694 30.4222 33.4724 32.2591 31.5072 35.0306L31.1528 35.6107C30.1219 37.2865 29.5743 39.2201 29.5743 41.1215V58.4596C29.5743 62.8424 32.2804 66.7741 36.243 68.3854V41.1537H39.4646V90.9765C39.4646 94.1669 42.0741 96.7773 45.2634 96.7773C48.4528 96.7773 51.0623 94.1669 51.0623 90.9765V70.8024H54.2839V90.9765ZM25.8694 91.5888C25.8694 94.457 28.189 96.7773 31.0562 96.7773C33.9234 96.7773 36.243 94.457 36.243 91.5888V71.8015C30.4441 70.029 26.3527 64.6149 26.3527 58.4596V41.1537C26.3527 39.4779 26.6426 37.8666 27.1903 36.3841H12.9186C7.57075 36.3841 3.2216 40.7348 3.2216 46.0844V61.9401C3.2216 65.8395 5.57336 69.32 9.05269 70.8347V46.0844H12.2743V91.5888C12.2743 94.457 14.5938 96.7773 17.4611 96.7773C20.3283 96.7773 22.6478 94.457 22.6478 91.5888V73.2517H25.8694V91.5888ZM24.2586 11.4728C18.9108 11.4728 14.5616 15.8234 14.5616 21.1731C14.5616 26.5227 18.9108 30.8733 24.2586 30.8733C29.6065 30.8733 33.9556 26.5227 33.9556 21.1731C33.9556 15.8234 29.6065 11.4728 24.2586 11.4728ZM52.6731 3.22269C46.7454 3.22269 41.9452 8.05672 41.9452 13.9542C41.9452 19.8518 46.7776 24.6858 52.6731 24.6858C58.5686 24.6858 63.401 19.8518 63.401 13.9542C63.401 8.05672 58.5686 3.22269 52.6731 3.22269Z" fill="white"/>
</g>
<defs>
<clipPath id="clip0_21_327">
<rect width="105.314" height="100" fill="white"/>
</clipPath>
</defs>
</svg>
