<svg width="84" height="83" viewBox="0 0 84 83" fill="none" xmlns="http://www.w3.org/2000/svg">
<path d="M41.9865 82.0209C18.9012 82.0209 0.0870361 63.6122 0.0870361 41.0135C0.0870361 18.4148 18.8742 0.00610352 41.9865 0.00610352C65.0987 0.00610352 83.8859 18.4148 83.8859 41.0135C83.8859 63.6122 65.0987 82.0209 41.9865 82.0209ZM41.9865 2.79039C20.4421 2.79039 2.89835 19.9286 2.89835 40.9865C2.89835 62.0443 20.4421 79.1825 41.9865 79.1825C63.5309 79.1825 81.0746 62.0443 81.0746 40.9865C81.0746 19.9286 63.5309 2.79039 41.9865 2.79039Z" fill="white"/>
<path d="M21.3341 36.0397L24.0643 44.0681H24.0914L26.6864 36.0397H30.2817V47.6904H27.8758V39.4187H27.8488L24.9834 47.6904H23.0101L20.1447 39.4998H20.1177V47.6904H17.7119V36.0397H21.3341Z" fill="white"/>
<path d="M35.0934 36.0397V47.6904H32.5253V36.0397H35.0934Z" fill="white"/>
<path d="M43.1759 36.0397L47.5281 47.6904H44.8519L43.9599 45.0954H39.6077L38.6886 47.6904H36.1206L40.5268 36.0397H43.1489H43.1759ZM43.3111 43.2031L41.8514 38.9321H41.8243L40.3106 43.2031H43.3381H43.3111Z" fill="white"/>
<path d="M53.7994 36.0397C54.5293 36.0397 55.151 36.1478 55.6646 36.3641C56.1782 36.5803 56.5837 36.8506 56.9081 37.202C57.2325 37.5535 57.4758 37.9589 57.6109 38.3915C57.7461 38.851 57.8272 39.3105 57.8272 39.7701C57.8272 40.2296 57.7461 40.6892 57.6109 41.1487C57.4758 41.6082 57.2325 41.9867 56.9081 42.3381C56.5837 42.6895 56.1782 42.9598 55.6646 43.1761C55.151 43.3923 54.5293 43.5005 53.7994 43.5005H51.0962V47.6904H48.5282V36.0397H53.7994ZM53.0966 41.5271C53.3939 41.5271 53.6643 41.5271 53.9346 41.4731C54.2049 41.419 54.4482 41.3379 54.6644 41.2298C54.8807 41.0946 55.0429 40.9324 55.151 40.6892C55.2862 40.4729 55.3402 40.1485 55.3402 39.7971C55.3402 39.4457 55.2862 39.1213 55.151 38.9051C55.0159 38.6888 54.8537 38.4996 54.6644 38.3644C54.4482 38.2293 54.2049 38.1482 53.9346 38.1211C53.6643 38.0671 53.3669 38.0671 53.0966 38.0671H51.0962V41.5542H53.0966V41.5271Z" fill="white"/>
<path d="M59.1517 38.8509C59.3139 38.2833 59.5843 37.7967 59.9357 37.3912C60.2871 36.9587 60.7196 36.6343 61.2602 36.4181C61.8009 36.1748 62.3956 36.0667 63.0714 36.0667C63.585 36.0667 64.0986 36.1477 64.5581 36.3099C65.0177 36.4721 65.4502 36.7154 65.8016 37.0128C66.153 37.3101 66.4504 37.6886 66.6666 38.1481C66.8829 38.6077 66.991 39.0942 66.991 39.6619C66.991 40.2296 66.9099 40.7432 66.7207 41.1486C66.5315 41.5541 66.2882 41.9326 65.9908 42.257C65.6935 42.5813 65.3421 42.8787 64.9636 43.122C64.5852 43.3653 64.1797 43.6356 63.8012 43.9059C63.4228 44.1762 63.0173 44.4465 62.6659 44.7439C62.2874 45.0412 61.9631 45.3927 61.6927 45.7711H67.0991V47.7715H58.6922C58.6922 47.0957 58.8003 46.528 58.9896 46.0414C59.1788 45.5548 59.4491 45.1223 59.7735 44.7169C60.0979 44.3384 60.4763 43.987 60.9359 43.6356C61.3684 43.3112 61.8549 42.9868 62.3415 42.6354C62.5848 42.4732 62.8551 42.284 63.1525 42.0948C63.4228 41.9055 63.6931 41.7163 63.9364 41.5001C64.1797 41.2838 64.3689 41.0405 64.5311 40.7702C64.6933 40.4999 64.7744 40.1755 64.7744 39.8511C64.7744 39.2834 64.6122 38.8509 64.2878 38.5536C63.9634 38.2292 63.5579 38.094 63.0443 38.094C62.72 38.094 62.4226 38.1751 62.1793 38.3373C61.936 38.4995 61.7468 38.7158 61.6116 38.9591C61.4765 39.2023 61.3684 39.4997 61.3143 39.797C61.2602 40.0944 61.2332 40.4188 61.2332 40.7161H59.0166C59.0166 40.0674 59.0706 39.4456 59.2328 38.905L59.1517 38.8509Z" fill="white"/>
</svg>
