<svg width="115" height="100" viewBox="0 0 115 100" fill="none" xmlns="http://www.w3.org/2000/svg">
<path d="M84.7442 100H29.3183C28.4102 100 27.6967 99.288 27.6967 98.3819V87.3139C27.6967 78.8026 34.6371 71.877 43.1667 71.877H53.2205C46.5071 70.1942 41.5451 64.11 41.5451 56.8932C41.5451 48.3819 48.4855 41.4563 57.015 41.4563C65.5446 41.4563 72.485 48.3819 72.485 56.8932C72.485 64.11 67.5229 70.1618 60.8095 71.877H70.8634C79.3929 71.877 86.3333 78.8026 86.3333 87.3139V98.3819C86.3333 99.288 85.6198 100 84.7117 100H84.7442ZM75.2741 96.7638H83.1226V87.3139C83.1226 80.5825 77.6416 75.1133 70.8958 75.1133H43.1991C36.4533 75.1133 30.9723 80.5825 30.9723 87.3139V96.7638H38.8208V87.3139C38.8208 86.4078 39.5343 85.6958 40.4424 85.6958C41.3505 85.6958 42.064 86.4078 42.064 87.3139V96.7638H72.0634V87.3139C72.0634 86.4078 72.7769 85.6958 73.685 85.6958C74.593 85.6958 75.3065 86.4078 75.3065 87.3139V96.7638H75.2741ZM57.015 44.6926C50.2692 44.6926 44.7883 50.1618 44.7883 56.8932C44.7883 63.6246 50.2692 69.0939 57.015 69.0939C63.7608 69.0939 69.2418 63.6246 69.2418 56.8932C69.2418 50.1618 63.7608 44.6926 57.015 44.6926ZM104.365 66.5696C99.5979 66.5696 95.6413 63.1392 94.8305 58.6084H82.4415C81.5334 58.6084 80.8199 57.8964 80.8199 56.9903C80.8199 56.0841 81.5334 55.1456 82.4415 55.1456H94.8305C95.6413 50.6149 99.6304 47.1845 104.365 47.1845C109.717 47.1845 114.062 51.521 114.062 56.8608C114.062 62.2006 109.717 66.5372 104.365 66.5372V66.5696ZM104.365 50.4531C100.798 50.4531 97.9115 53.3333 97.9115 56.8932C97.9115 60.4531 100.798 63.3333 104.365 63.3333C107.933 63.3333 110.819 60.4531 110.819 56.8932C110.819 53.3333 107.933 50.4531 104.365 50.4531ZM9.69709 66.5696C4.34585 66.5696 0 62.233 0 56.8932C0 51.5534 4.34585 47.2168 9.69709 47.2168C14.4646 47.2168 18.4212 50.6473 19.232 55.178H31.621C32.5291 55.178 33.2426 55.89 33.2426 56.7961C33.2426 57.7023 32.5291 58.6408 31.621 58.6408H19.232C18.4212 63.1715 14.4321 66.602 9.69709 66.602V66.5696ZM9.69709 50.4531C6.1296 50.4531 3.24318 53.3333 3.24318 56.8932C3.24318 60.4531 6.1296 63.3333 9.69709 63.3333C13.2646 63.3333 16.151 60.4531 16.151 56.8932C16.151 53.3333 13.2646 50.4531 9.69709 50.4531ZM75.0795 40.6796C74.6579 40.6796 74.2363 40.5178 73.9444 40.1942L73.7822 40.0324C73.1336 39.3851 73.1336 38.3819 73.7822 37.7346L82.5388 28.9968C81.4037 27.3786 80.8199 25.5016 80.8199 23.4951C80.8199 20.9061 81.8253 18.479 83.6739 16.6343C87.3387 12.9773 93.7278 12.9773 97.3926 16.6343C99.2412 18.479 100.247 20.9061 100.247 23.4951C100.247 26.0841 99.2412 28.5113 97.3926 30.356C94.0197 33.7217 88.7981 34.0777 85.0036 31.4563L76.2471 40.1942C75.9227 40.5178 75.5011 40.6796 75.1119 40.6796H75.0795ZM90.517 17.055C88.7981 17.055 87.1766 17.7346 85.9442 18.932C84.7117 20.1618 84.0631 21.7799 84.0631 23.4951C84.0631 25.2104 84.7442 26.8285 85.9442 28.0583C88.4738 30.5825 92.5602 30.5825 95.0899 28.0583C96.3223 26.8285 96.971 25.2104 96.971 23.4951C96.971 21.7799 96.2899 20.1618 95.0899 18.932C93.8575 17.7023 92.2359 17.055 90.517 17.055ZM38.9181 40.6149C38.5289 40.6149 38.1397 40.4854 37.8479 40.2265L29.0913 31.4887C25.3941 34.0453 19.9455 33.6246 16.7024 30.356C14.8537 28.5437 13.8484 26.0841 13.8484 23.4951C13.8484 20.9061 14.8537 18.479 16.7024 16.6343C20.3671 12.9773 26.7562 12.9773 30.421 16.6343C32.2696 18.479 33.275 20.9061 33.275 23.4951C33.275 25.5016 32.6588 27.411 31.5561 28.9968L40.3127 37.7346C40.9613 38.3819 40.9613 39.3851 40.3127 40.0324C39.9559 40.3884 39.437 40.5825 38.9181 40.5825V40.6149ZM23.5779 17.055C21.859 17.055 20.2374 17.7346 19.005 18.932C17.7726 20.1618 17.124 21.7799 17.124 23.4951C17.124 25.2104 17.805 26.8285 19.005 28.0583C21.4374 30.4854 25.7184 30.4854 28.1508 28.0583C29.3832 26.8285 30.0318 25.2104 30.0318 23.4951C30.0318 21.7799 29.3507 20.1618 28.1508 18.932C26.9508 17.7023 25.2968 17.055 23.5779 17.055ZM57.1772 33.1715H56.9502C56.0421 33.1715 55.3286 32.4595 55.3286 31.5534V19.1909C50.7881 18.3819 47.3504 14.4013 47.3504 9.67638C47.3504 4.33657 51.6962 0 57.0475 0C62.3987 0 66.7446 4.33657 66.7446 9.67638C66.7446 14.4337 63.3068 18.3819 58.7663 19.1909V31.5534C58.7663 32.4595 58.0528 33.1715 57.1448 33.1715H57.1772ZM57.0475 3.20388C53.48 3.20388 50.5935 6.08414 50.5935 9.64401C50.5935 13.2039 53.48 16.0841 57.0475 16.0841C60.615 16.0841 63.5014 13.2039 63.5014 9.64401C63.5014 6.08414 60.615 3.20388 57.0475 3.20388Z" fill="white"/>
</svg>
