<svg width="34" height="37" viewBox="0 0 34 37" fill="none" xmlns="http://www.w3.org/2000/svg">
<path d="M16.9949 28.9782C10.9722 28.9782 6.07397 24.0801 6.07397 18.0574C6.07397 12.0347 10.9722 7.13647 16.9949 7.13647C23.0176 7.13647 27.9157 12.0347 27.9157 18.0574C27.9157 24.0801 23.0176 28.9782 16.9949 28.9782ZM16.9949 8.21775C11.5669 8.21775 7.15525 12.6294 7.15525 18.0574C7.15525 23.4854 11.5669 27.897 16.9949 27.897C22.4229 27.897 26.8345 23.4854 26.8345 18.0574C26.8345 12.6294 22.4229 8.21775 16.9949 8.21775Z" fill="#EDAA50"/>
<path d="M16.9949 4.97387C15.6216 4.97387 14.5079 3.86015 14.5079 2.48693C14.5079 1.11371 15.6216 0 16.9949 0C18.3681 0 19.4818 1.11371 19.4818 2.48693C19.4818 3.86015 18.3681 4.97387 16.9949 4.97387ZM16.9949 1.08128C16.2163 1.08128 15.5892 1.70842 15.5892 2.48693C15.5892 3.26545 16.2163 3.89259 16.9949 3.89259C17.7734 3.89259 18.4005 3.26545 18.4005 2.48693C18.4005 1.70842 17.7734 1.08128 16.9949 1.08128Z" fill="#EDAA50"/>
<path d="M16.9949 36.1146C15.6216 36.1146 14.5079 35.0009 14.5079 33.6277C14.5079 32.2545 15.6216 31.1407 16.9949 31.1407C18.3681 31.1407 19.4818 32.2545 19.4818 33.6277C19.4818 35.0009 18.3681 36.1146 16.9949 36.1146ZM16.9949 32.222C16.2163 32.222 15.5892 32.8492 15.5892 33.6277C15.5892 34.4062 16.2163 35.0333 16.9949 35.0333C17.7734 35.0333 18.4005 34.4062 18.4005 33.6277C18.4005 32.8492 17.7734 32.222 16.9949 32.222Z" fill="#EDAA50"/>
<path d="M16.9949 4.97387C15.6216 4.97387 14.5079 3.86015 14.5079 2.48693C14.5079 1.11371 15.6216 0 16.9949 0C18.3681 0 19.4818 1.11371 19.4818 2.48693C19.4818 3.86015 18.3681 4.97387 16.9949 4.97387ZM16.9949 1.08128C16.2163 1.08128 15.5892 1.70842 15.5892 2.48693C15.5892 3.26545 16.2163 3.89259 16.9949 3.89259C17.7734 3.89259 18.4005 3.26545 18.4005 2.48693C18.4005 1.70842 17.7734 1.08128 16.9949 1.08128Z" fill="#EDAA50"/>
<path d="M16.9949 36.1146C15.6216 36.1146 14.5079 35.0009 14.5079 33.6277C14.5079 32.2545 15.6216 31.1407 16.9949 31.1407C18.3681 31.1407 19.4818 32.2545 19.4818 33.6277C19.4818 35.0009 18.3681 36.1146 16.9949 36.1146ZM16.9949 32.222C16.2163 32.222 15.5892 32.8492 15.5892 33.6277C15.5892 34.4062 16.2163 35.0333 16.9949 35.0333C17.7734 35.0333 18.4005 34.4062 18.4005 33.6277C18.4005 32.8492 17.7734 32.222 16.9949 32.222Z" fill="#EDAA50"/>
<path d="M3.51139 12.7699C3.07888 12.7699 2.65718 12.6618 2.26792 12.4347C1.69484 12.0995 1.28396 11.5697 1.11095 10.9209C0.937951 10.2829 1.02445 9.61255 1.35965 9.02866C1.69484 8.44477 2.22467 8.0447 2.87343 7.8717C3.51139 7.69869 4.18178 7.78519 4.76567 8.12039C5.33874 8.45559 5.74963 8.98541 5.92263 9.63418C6.09564 10.2721 6.00913 10.9425 5.67394 11.5264C5.33874 12.0995 4.80892 12.5104 4.16015 12.6834C3.9439 12.7374 3.72764 12.7699 3.51139 12.7699ZM3.51139 8.87728C3.39245 8.87728 3.26269 8.89891 3.14375 8.92054C2.77612 9.01785 2.47336 9.25573 2.28955 9.58011C2.10573 9.9045 2.05166 10.2829 2.14898 10.6506C2.24629 11.0182 2.48417 11.321 2.80856 11.5048C3.13294 11.6886 3.51139 11.7427 3.87902 11.6453C4.23584 11.548 4.54941 11.3102 4.73323 10.9858C4.91705 10.6614 4.97111 10.2829 4.8738 9.91531C4.77648 9.54767 4.54941 9.24492 4.21422 9.0611C3.99796 8.93135 3.76008 8.87728 3.51139 8.87728Z" fill="#EDAA50"/>
<path d="M30.4784 28.3402C30.0459 28.3402 29.6242 28.2321 29.235 28.005C28.6619 27.6698 28.251 27.14 28.078 26.4912C27.905 25.8533 27.9915 25.1829 28.3267 24.599C28.6619 24.0259 29.1917 23.615 29.8405 23.442C30.4784 23.269 31.1488 23.3555 31.7327 23.6907C32.9221 24.3719 33.333 25.8965 32.641 27.0859C32.3058 27.659 31.776 28.0699 31.1272 28.2429C30.9109 28.2969 30.6947 28.3294 30.4784 28.3294V28.3402ZM30.4784 24.4476C30.3595 24.4476 30.2297 24.4692 30.1108 24.4908C29.754 24.5882 29.4404 24.826 29.2566 25.1504C29.0728 25.4748 29.0187 25.8533 29.116 26.2209C29.2133 26.5885 29.4404 26.8913 29.7756 27.0751C30.1 27.2589 30.4784 27.313 30.8461 27.2157C31.2137 27.1183 31.5165 26.8805 31.7003 26.5561C32.0895 25.8857 31.8516 25.0207 31.1813 24.6314C30.965 24.5017 30.7271 24.4476 30.4784 24.4476Z" fill="#EDAA50"/>
<path d="M3.5222 28.3402C3.30594 28.3402 3.08969 28.3077 2.87343 28.2537C2.23548 28.0807 1.69484 27.6698 1.35965 27.0967C1.02445 26.5236 0.937951 25.8533 1.11095 25.2045C1.28396 24.5665 1.69484 24.0259 2.26792 23.6907C2.841 23.3555 3.51139 23.269 4.16015 23.442C4.79811 23.615 5.33874 24.0259 5.67394 24.599C6.00913 25.1721 6.09564 25.8424 5.92263 26.4912C5.74963 27.1292 5.33874 27.6698 4.76567 28.005C4.38722 28.2321 3.95471 28.3402 3.5222 28.3402ZM3.5222 24.4476C3.27351 24.4476 3.03563 24.5125 2.81937 24.6314C2.49499 24.8152 2.25711 25.118 2.15979 25.4856C2.06248 25.8424 2.11654 26.2317 2.30036 26.5561C2.48417 26.8805 2.78693 27.1183 3.15457 27.2157C3.5222 27.313 3.90065 27.2589 4.22503 27.0751C4.54941 26.8913 4.78729 26.5885 4.88461 26.2209C4.98192 25.8533 4.92786 25.4748 4.74404 25.1504C4.56022 24.826 4.25747 24.5882 3.88983 24.4908C3.77089 24.4584 3.64114 24.4476 3.5222 24.4476Z" fill="#EDAA50"/>
<path d="M30.4892 12.7699C30.273 12.7699 30.0567 12.7374 29.8405 12.6834C29.2025 12.5104 28.6619 12.0995 28.3267 11.5264C27.9915 10.9533 27.905 10.2829 28.078 9.63418C28.251 8.99623 28.6619 8.45559 29.235 8.12039C29.808 7.78519 30.4784 7.69869 31.1272 7.8717C31.7651 8.0447 32.3058 8.45559 32.641 9.02866C33.3222 10.2181 32.9221 11.7427 31.7327 12.4239C31.3543 12.6509 30.9218 12.7591 30.4892 12.7591V12.7699ZM30.4892 8.87728C30.2405 8.87728 30.0027 8.94216 29.7864 9.0611C29.462 9.24492 29.2241 9.54767 29.1268 9.91531C29.0295 10.2829 29.0836 10.6614 29.2674 10.9858C29.4512 11.3102 29.754 11.548 30.1216 11.6453C30.4892 11.7427 30.8677 11.6886 31.1921 11.5048C31.8625 11.1155 32.0895 10.2505 31.7111 9.58011C31.5273 9.25573 31.2245 9.01785 30.8569 8.92054C30.7379 8.8881 30.6082 8.87728 30.4892 8.87728Z" fill="#EDAA50"/>
<path d="M15.5676 34.1143L14.9945 34.0386C10.7235 33.5087 6.766 31.2273 4.14931 27.778L3.8033 27.3239L4.27907 27.0103C4.89539 26.5994 5.09002 25.7776 4.72239 25.1397C4.35475 24.5017 3.5438 24.2638 2.88422 24.5882L2.36521 24.8477L2.13814 24.3179C1.30556 22.3392 0.873047 20.2307 0.873047 18.0573C0.873047 15.8839 1.29474 13.7755 2.13814 11.7967L2.36521 11.2669L2.88422 11.5264C3.5438 11.8508 4.35475 11.6129 4.72239 10.975C5.09002 10.337 4.89539 9.51523 4.27907 9.10435L3.8033 8.79078L4.14931 8.33664C6.766 4.88737 10.7127 2.60588 14.9945 2.07606L15.5676 2.00037L15.6 2.57344C15.6433 3.30871 16.2596 3.8926 16.9949 3.8926C17.7301 3.8926 18.3465 3.30871 18.3897 2.57344L18.4222 2.00037L18.9952 2.07606C23.2663 2.60588 27.2237 4.88737 29.8404 8.33664L30.1864 8.79078L29.7107 9.10435C29.0943 9.51523 28.8997 10.337 29.2674 10.975C29.635 11.6129 30.4459 11.8508 31.1055 11.5264L31.6245 11.2669L31.8516 11.7967C32.6842 13.7755 33.1167 15.8839 33.1167 18.0573C33.1167 20.2307 32.695 22.3392 31.8516 24.3179L31.6245 24.8477L31.1055 24.5882C30.4459 24.253 29.635 24.5017 29.2674 25.1397C28.8997 25.7776 29.0943 26.5994 29.7107 27.0103L30.1864 27.3239L29.8404 27.778C27.2237 31.2273 23.2771 33.5087 18.9952 34.0386L18.4222 34.1143L18.3897 33.5412C18.3465 32.8059 17.7301 32.222 16.9949 32.222C16.2596 32.222 15.6433 32.8059 15.6 33.5412L15.5676 34.1143ZM16.9949 31.1408C18.0978 31.1408 19.0493 31.876 19.3629 32.8924C22.996 32.3193 26.3371 30.3839 28.6618 27.5293C27.9374 26.7508 27.7752 25.5614 28.3266 24.599C28.8781 23.6367 30.0026 23.1826 31.0406 23.4313C31.7002 21.7228 32.0246 19.9171 32.0246 18.0573C32.0246 16.1975 31.6894 14.4026 31.0406 12.6942C30.0026 12.9321 28.8889 12.4779 28.3266 11.5264C27.7752 10.5641 27.9374 9.37467 28.6618 8.59615C26.3371 5.73077 22.996 3.8061 19.3629 3.23302C19.0493 4.24942 18.0978 4.98469 16.9949 4.98469C15.892 4.98469 14.9404 4.24942 14.6269 3.23302C10.9938 3.8061 7.65265 5.74158 5.3279 8.59615C6.05236 9.37467 6.21455 10.5641 5.6631 11.5264C5.11165 12.4887 3.99793 12.9429 2.9491 12.6942C2.28952 14.4026 1.96514 16.2083 1.96514 18.0573C1.96514 19.9063 2.30033 21.712 2.9491 23.4313C3.98712 23.1826 5.11165 23.6475 5.6631 24.599C6.21455 25.5614 6.05236 26.7508 5.3279 27.5293C7.65265 30.3947 10.9938 32.3193 14.6269 32.8924C14.9404 31.876 15.892 31.1408 16.9949 31.1408Z" fill="#EDAA50"/>
<path d="M16.9948 8.25013H16.4542L16.4218 7.67705V4.54135L17.5355 4.50891L17.5679 5.08199V8.21769L16.9948 8.25013Z" fill="#EDAA50"/>
<path d="M16.9948 31.6057H16.4542L16.4218 31.0326V27.8969L17.5355 27.8645L17.5679 28.4376V31.5733L16.9948 31.6057Z" fill="#EDAA50"/>
<path d="M16.9948 8.25013H16.4542L16.4218 7.67705V4.54135L17.5355 4.50891L17.5679 5.08199V8.21769L16.9948 8.25013Z" fill="#EDAA50"/>
<path d="M16.9948 31.6057H16.4542L16.4218 31.0326V27.8969L17.5355 27.8645L17.5679 28.4376V31.5733L16.9948 31.6057Z" fill="#EDAA50"/>
<path d="M8.00947 13.4402H7.84728L7.6959 13.3537L5.02515 11.8075L5.38197 11.0831L5.87935 10.9641L6.09561 11.1047L8.48523 12.4887L8.6258 12.932L8.35548 13.4294L8.00947 13.4402Z" fill="#EDAA50"/>
<path d="M28.2401 25.1181H28.0888L25.5153 23.6367L25.3748 23.1934L25.6018 22.7717L26.056 22.642L26.283 22.7609L28.7159 24.1666L28.8457 24.6099L28.5753 25.1073L28.2401 25.1181Z" fill="#EDAA50"/>
<path d="M5.76039 25.1181H5.45763L4.98187 24.3612L5.49007 24.0476L7.91213 22.642L8.36627 22.7501L8.61496 23.161L8.49602 23.6259L5.92258 25.1181H5.76039Z" fill="#EDAA50"/>
<path d="M25.9911 13.4403H25.6883L25.3748 12.9645L25.4937 12.4996L28.132 10.975L28.597 11.0615L28.8457 11.4832L28.7267 11.9481L26.1533 13.4403H25.9911Z" fill="#EDAA50"/>
<path d="M16.9948 19.2035C15.2648 19.2035 13.8591 17.7979 13.8591 16.0678C13.8591 14.3378 15.2648 12.9321 16.9948 12.9321C18.7249 12.9321 20.1305 14.3378 20.1305 16.0678C20.1305 17.7979 18.7249 19.2035 16.9948 19.2035ZM16.9948 14.0134C15.8595 14.0134 14.9404 14.9325 14.9404 16.0678C14.9404 17.2032 15.8595 18.1223 16.9948 18.1223C18.1302 18.1223 19.0493 17.2032 19.0493 16.0678C19.0493 14.9325 18.1302 14.0134 16.9948 14.0134Z" fill="#EDAA50"/>
<path d="M22.7256 23.1827H11.2641V21.7771C11.2641 20.047 12.6698 18.6414 14.3998 18.6414H19.5899C21.32 18.6414 22.7256 20.047 22.7256 21.7771V23.1827ZM12.3454 22.1014H21.6443V21.7771C21.6443 20.6417 20.7253 19.7226 19.5899 19.7226H14.3998C13.2645 19.7226 12.3454 20.6417 12.3454 21.7771V22.1014Z" fill="#EDAA50"/>
</svg>
