<svg width="36" height="36" viewBox="0 0 36 36" fill="none" xmlns="http://www.w3.org/2000/svg">
<path d="M34.8198 35.4973H1.18126C0.878506 35.4973 0.640625 35.2594 0.640625 34.9566V29.3556C0.640625 29.0529 0.878506 28.815 1.18126 28.815H11.8535V23.7438C11.8535 23.4411 12.0913 23.2032 12.3941 23.2032H23.6069C23.9097 23.2032 24.1476 23.4411 24.1476 23.7438V26.0037H34.8198C35.1225 26.0037 35.3604 26.2416 35.3604 26.5443V34.9566C35.3604 35.2594 35.1225 35.4973 34.8198 35.4973ZM24.1476 34.416H34.2791V27.085H24.1476V34.416ZM12.9347 34.416H23.0663V26.5443C23.0663 26.5443 23.0663 26.5227 23.0663 26.5119V24.2845H12.9347V34.416ZM1.7219 34.416H11.8535V29.8963H1.7219V34.416ZM28.7646 19.5701C28.4619 19.5701 28.1591 19.3322 28.1591 19.0295V18.3266C28.1591 18.3266 28.1591 18.2185 28.1807 18.1752C28.1375 18.1861 28.0834 18.1969 28.0293 18.1969H27.3265C27.0238 18.1969 26.7859 17.959 26.7859 17.6562V17.5914C26.7859 17.2886 27.0238 17.0507 27.3265 17.0507H28.0293C28.0293 17.0507 28.1375 17.0507 28.1807 17.0723C28.1591 17.0291 28.1591 16.975 28.1591 16.9318V16.2289C28.1591 15.9262 28.397 15.6883 28.6997 15.6883C29.0025 15.6883 29.3053 15.9262 29.3053 16.2289V16.9318C29.3053 16.9318 29.3052 17.0291 29.2836 17.0723C29.3269 17.0615 29.3809 17.0507 29.4242 17.0507H30.127C30.4298 17.0507 30.6677 17.2886 30.6677 17.5914C30.6677 17.8941 30.4298 18.1969 30.127 18.1969H29.4242C29.4242 18.1969 29.3269 18.1969 29.2728 18.1752C29.2836 18.2185 29.2944 18.2726 29.2944 18.3266V19.0295C29.2944 19.3322 29.0566 19.5701 28.7538 19.5701H28.7646ZM28.6997 17.786C28.7754 17.786 28.8511 17.7968 28.916 17.8292C28.8944 17.7752 28.8944 17.7211 28.8944 17.6562V17.5914C28.8944 17.5914 28.8944 17.494 28.916 17.4508C28.797 17.4832 28.6673 17.4724 28.5484 17.4292C28.57 17.4832 28.57 17.5373 28.57 17.5914C28.57 17.667 28.5592 17.7427 28.5267 17.8184C28.5808 17.7968 28.6349 17.7968 28.6997 17.7968V17.786ZM14.5134 18.1212C14.1241 18.1212 13.7349 18.0022 13.3997 17.7535C12.805 17.321 12.5238 16.6182 12.6428 15.8938L13.0645 13.4176C13.1077 13.1581 13.0212 12.8878 12.8266 12.6932L11.0209 10.9415C10.5019 10.4333 10.318 9.68723 10.5343 8.99521C10.7614 8.30319 11.3453 7.80581 12.0697 7.69768L14.5566 7.34086C14.827 7.29761 15.054 7.13542 15.173 6.89754L16.2867 4.64848C16.6111 3.99972 17.2598 3.58883 17.9843 3.58883C18.7087 3.58883 19.3683 3.99972 19.6819 4.64848L20.7956 6.90835C20.9145 7.14623 21.1416 7.31923 21.4119 7.35167L23.8989 7.70849C24.6233 7.81662 25.2072 8.31401 25.4343 9.00602C25.6613 9.69804 25.4775 10.4441 24.9477 10.9523L23.142 12.704C22.9473 12.8878 22.8608 13.1581 22.9041 13.4284L23.3258 15.9046C23.4447 16.6182 23.1636 17.3318 22.5689 17.7644C21.9742 18.1969 21.2173 18.2509 20.5685 17.9049L18.3411 16.7371C18.1032 16.6074 17.8221 16.6074 17.5842 16.7371L15.3568 17.9049C15.0757 18.0563 14.7729 18.1212 14.4701 18.1212H14.5134ZM18.0059 4.65929C17.6923 4.65929 17.4112 4.8323 17.2706 5.11343L16.1569 7.3733C15.8758 7.93556 15.346 8.32482 14.7296 8.41132L12.2427 8.76814C11.9291 8.81139 11.6805 9.01684 11.5831 9.31959C11.4858 9.62235 11.5615 9.93592 11.7886 10.1522L13.5943 11.9038C14.0376 12.3364 14.2431 12.9635 14.1458 13.5798L13.7241 16.0559C13.67 16.3695 13.7889 16.6723 14.0484 16.8561C14.308 17.0399 14.6323 17.0615 14.9027 16.921L17.1301 15.7532C17.6815 15.4612 18.3411 15.4612 18.9034 15.7532L21.1308 16.921C21.4119 17.0723 21.7363 17.0507 21.9958 16.8561C22.2553 16.6723 22.3743 16.3695 22.3202 16.0559L21.8985 13.5798C21.7904 12.9635 21.9958 12.3364 22.45 11.9038L24.2557 10.1522C24.4828 9.92511 24.5584 9.61154 24.4611 9.31959C24.3638 9.01684 24.1151 8.81139 23.8016 8.76814L21.3146 8.41132C20.6983 8.32482 20.1577 7.93556 19.8873 7.3733L18.7736 5.11343C18.6331 4.8323 18.3627 4.65929 18.0384 4.65929H18.0059ZM5.43068 16.0668C5.12792 16.0668 4.82516 15.8289 4.82516 15.5261V14.4773C4.82516 14.1745 5.06304 13.9366 5.3658 13.9366C5.66856 13.9366 5.97132 14.1745 5.97132 14.4773V15.5261C5.97132 15.8289 5.73344 16.0668 5.43068 16.0668ZM7.49591 14.0015H6.44708C6.14432 14.0015 5.90644 13.7636 5.90644 13.4609V13.396C5.90644 13.0932 6.14432 12.8554 6.44708 12.8554H7.49591C7.79867 12.8554 8.03655 13.0932 8.03655 13.396C8.03655 13.6988 7.79867 14.0015 7.49591 14.0015ZM4.33859 14.0015H3.28975C2.98699 14.0015 2.74911 13.7636 2.74911 13.4609V13.396C2.74911 13.0932 2.98699 12.8554 3.28975 12.8554H4.33859C4.64135 12.8554 4.87923 13.0932 4.87923 13.396C4.87923 13.6988 4.64135 14.0015 4.33859 14.0015ZM5.41987 12.9202C5.11711 12.9202 4.81435 12.6824 4.81435 12.3796V11.3308C4.81435 11.028 5.05223 10.7901 5.35499 10.7901C5.65774 10.7901 5.9605 11.028 5.9605 11.3308V12.3796C5.9605 12.6824 5.72262 12.9202 5.41987 12.9202ZM30.127 7.47061C29.7702 7.47061 29.4458 7.25436 29.3053 6.91916C28.9376 6.04333 28.224 5.32969 27.3373 4.95124C27.0021 4.81067 26.7859 4.48629 26.7859 4.11866C26.7859 3.75102 27.0021 3.43745 27.3373 3.29689C28.2132 2.92925 28.9268 2.21561 29.3053 1.32897C29.5864 0.658574 30.6785 0.658574 30.9596 1.32897C31.3272 2.2048 32.0409 2.91844 32.9275 3.29689C33.2627 3.43745 33.479 3.76184 33.479 4.11866C33.479 4.47548 33.2627 4.79986 32.9275 4.95124C32.0517 5.31887 31.3272 6.03252 30.9596 6.91916C30.819 7.25436 30.4947 7.47061 30.1378 7.47061H30.127ZM28.1158 4.12947C28.9701 4.58361 29.6729 5.28643 30.127 6.14064C30.5812 5.28643 31.284 4.58361 32.1382 4.12947C31.284 3.67533 30.5812 2.9725 30.127 2.1183C29.6837 2.9725 28.9701 3.67533 28.1158 4.12947Z" fill="#EDAA50"/>
</svg>
