<svg width="32" height="40" viewBox="0 0 32 40" fill="none" xmlns="http://www.w3.org/2000/svg">
<path d="M22.102 39.1905H22.0641C21.5847 39.1779 21.143 38.9129 20.9033 38.4965L15.755 29.5754C15.6288 29.3609 15.6414 29.0959 15.7928 28.894C15.9443 28.6921 16.184 28.5911 16.4238 28.6416C16.714 28.7047 16.9537 28.793 17.1682 28.9318L19.1746 30.2189C19.3891 30.3577 19.6414 30.3956 19.8812 30.3325C20.1335 30.2694 20.3228 30.1053 20.449 29.8782L21.5468 27.7583C21.938 27.0138 22.7203 26.5343 23.5657 26.5974L25.938 26.711C26.2282 26.711 26.468 26.6101 26.6446 26.3955C26.7834 26.2441 26.9727 26.1558 27.1872 26.181C27.3891 26.2063 27.5657 26.3198 27.6793 26.4965L31.1872 32.5659C31.427 32.9823 31.4396 33.4871 31.2124 33.9161C30.9853 34.3451 30.5563 34.6101 30.0768 34.6479L25.7613 34.9129L23.2881 38.5722C23.0231 38.9634 22.5941 39.2032 22.1272 39.2032L22.102 39.1905ZM21.9884 37.8656H22.203L24.5878 34.2694C24.8276 33.9035 25.2314 33.6763 25.6604 33.6511L29.9758 33.3861L30.0768 33.1968L26.9222 27.7457C26.5941 27.9097 26.2282 27.9981 25.8623 27.9728L23.4774 27.8593C23.1241 27.8593 22.8086 28.0359 22.6446 28.3388L21.5468 30.4587C21.2692 31.0012 20.7771 31.3924 20.184 31.5564C19.6036 31.7079 18.9727 31.6195 18.4679 31.2915L17.9884 30.9886L21.9632 37.8782L21.9884 37.8656Z" fill="#EDAA50"/>
<path d="M9.90022 39.1911C9.43334 39.1911 9.00432 38.9639 8.73933 38.5602L6.35447 34.9513L1.93805 34.6359C1.45855 34.6106 1.02953 34.333 0.802397 33.904C0.575267 33.475 0.587886 32.9702 0.827634 32.5538L4.33553 26.4844C4.43648 26.3077 4.61313 26.1942 4.82765 26.1689C5.02954 26.1689 5.23143 26.232 5.37024 26.3835C5.54689 26.598 5.78664 26.6989 6.07686 26.6989L8.44911 26.5854C9.28192 26.5223 10.0769 27.0018 10.468 27.7462L11.5658 29.8661C11.6794 30.0932 11.8813 30.2573 12.1337 30.3204C12.3734 30.3835 12.6258 30.3456 12.8403 30.2068L14.8466 28.9197C15.0611 28.7809 15.3009 28.6926 15.5911 28.6295C15.8435 28.579 16.0832 28.68 16.222 28.8819C16.3608 29.0838 16.3734 29.3488 16.2599 29.5633L11.1116 38.4844C10.8718 38.9009 10.4302 39.1658 9.95069 39.1785H9.91284L9.90022 39.1911ZM2.02638 33.3866L6.34185 33.6516C6.77087 33.6769 7.17466 33.9166 7.41441 34.2699L9.79927 37.8788L10.5564 38.1942L10.0138 37.8788L13.9886 30.9892L13.5091 31.292C13.0043 31.6201 12.3734 31.721 11.793 31.557C11.2125 31.4056 10.7204 31.0018 10.4302 30.4592L9.33239 28.3393C9.16835 28.0365 8.86551 27.8598 8.49958 27.8598L6.11472 27.9734C5.74879 27.9986 5.38285 27.9103 5.05478 27.7462L1.90019 33.1974L1.96329 34.0176L2.00114 33.3866H2.02638Z" fill="#EDAA50"/>
<path d="M12.3484 31.6196C12.1591 31.6196 11.9698 31.5944 11.7932 31.5439C11.2127 31.3925 10.7206 30.9887 10.4304 30.4461L9.3326 28.3263C9.16856 28.0234 8.86572 27.8468 8.49979 27.8468L6.11493 27.9603C5.48401 27.9982 4.91618 27.7584 4.48716 27.3294C4.05814 26.9004 3.83101 26.3073 3.85624 25.7016L3.96981 23.3294C3.98243 22.9761 3.79315 22.648 3.49031 22.4966L1.37043 21.3988C0.827841 21.1212 0.436673 20.6291 0.272635 20.0486C0.108596 19.4682 0.209543 18.8373 0.53762 18.3325L1.82469 16.3262C2.01397 16.036 2.01397 15.6574 1.82469 15.3672L0.53762 13.3609C0.209543 12.8562 0.108596 12.2253 0.272635 11.6448C0.436673 11.0644 0.827841 10.5723 1.37043 10.282L3.49031 9.18424C3.79315 9.0202 3.98243 8.69212 3.96981 8.35143L3.85624 5.97918C3.83101 5.3735 4.05814 4.78044 4.48716 4.35142C4.91618 3.92239 5.53448 3.68264 6.11493 3.7205L8.49979 3.83406C8.82787 3.83406 9.16856 3.65741 9.3326 3.35457L10.4304 1.23469C10.708 0.692099 11.2001 0.300931 11.7932 0.136892C12.3736 -0.0145276 13.0045 0.0738009 13.5093 0.401878L15.5156 1.68895C15.8058 1.87822 16.1844 1.87822 16.4746 1.68895L18.4809 0.401878C18.9856 0.0738009 19.6165 -0.0271459 20.197 0.136892C20.7774 0.300931 21.2696 0.692099 21.5598 1.23469L22.6576 3.35457C22.8216 3.65741 23.1118 3.83406 23.4904 3.83406L25.8752 3.7205C26.4935 3.67003 27.074 3.92239 27.503 4.35142C27.932 4.78044 28.1592 5.3735 28.1339 5.97918L28.0204 8.35143C28.0077 8.70474 28.197 9.03282 28.4999 9.18424L30.6197 10.282C31.1623 10.5596 31.5535 11.0518 31.7175 11.6448C31.8816 12.2379 31.7806 12.8562 31.4526 13.3609L30.1655 15.3672C29.9762 15.6574 29.9762 16.036 30.1655 16.3262L31.4526 18.3325C31.7806 18.8373 31.8816 19.4682 31.7175 20.0486C31.5535 20.6291 31.1623 21.1212 30.6197 21.3988L28.4999 22.4966C28.197 22.6606 28.0077 22.9887 28.0204 23.3294L28.1339 25.7016C28.1592 26.3073 27.932 26.9004 27.503 27.3294C27.074 27.7584 26.4683 28.0108 25.8752 27.9603L23.4904 27.8468C23.1371 27.8468 22.8216 28.0234 22.6576 28.3263L21.5598 30.4461C21.2822 30.9887 20.7901 31.3799 20.197 31.5439C19.6165 31.6954 18.9856 31.607 18.4809 31.279L16.4746 29.9919C16.1844 29.8026 15.8058 29.8026 15.5156 29.9919L13.5093 31.279C13.156 31.5061 12.7522 31.6196 12.3484 31.6196ZM8.55027 26.5975C9.34522 26.5975 10.0897 27.0518 10.4556 27.7584L11.5534 29.8783C11.667 30.1054 11.8689 30.2695 12.1213 30.3326C12.361 30.3957 12.6134 30.3578 12.8279 30.219L14.8342 28.9319C15.5408 28.4777 16.4493 28.4777 17.156 28.9319L19.1623 30.219C19.3768 30.3578 19.6292 30.3957 19.8689 30.3326C20.1213 30.2695 20.3106 30.1054 20.4367 29.8783L21.5345 27.7584C21.9257 27.014 22.708 26.5345 23.5535 26.5975L25.9383 26.7111C26.1907 26.7111 26.4305 26.6354 26.6071 26.4461C26.7838 26.2695 26.8721 26.0297 26.8721 25.7774L26.7585 23.4051C26.7207 22.5597 27.1749 21.7773 27.9194 21.3862L30.0393 20.2884C30.2664 20.1748 30.4305 19.9729 30.4936 19.7332C30.5566 19.4934 30.5188 19.2284 30.38 19.0139L29.0929 17.0076C28.6387 16.301 28.6387 15.3925 29.0929 14.6858L30.38 12.6795C30.5188 12.465 30.5566 12.2126 30.4936 11.9729C30.4305 11.7331 30.2664 11.5312 30.0393 11.4051L27.9194 10.3073C27.1749 9.9161 26.7207 9.13377 26.7585 8.28834L26.8721 5.90347C26.8721 5.65111 26.7964 5.41136 26.6071 5.2347C26.4305 5.05804 26.1907 4.96972 25.9383 4.96972L23.5661 5.08328C22.7333 5.13375 21.9383 4.66688 21.5472 3.92239L20.4494 1.80251C20.3358 1.57538 20.1339 1.41134 19.8815 1.34825C19.6292 1.28516 19.3894 1.32302 19.1749 1.46182L17.1686 2.74889C16.462 3.20315 15.5534 3.20315 14.8468 2.74889L12.8405 1.46182C12.626 1.32302 12.3736 1.28516 12.1339 1.34825C11.8815 1.41134 11.6922 1.57538 11.566 1.80251L10.4683 3.92239C10.0771 4.66688 9.28213 5.13375 8.44932 5.08328L6.06445 4.96972C5.81209 4.96972 5.57234 5.05804 5.39568 5.2347C5.21902 5.41136 5.13069 5.65111 5.13069 5.90347L5.24426 8.27572C5.28211 9.12115 4.82785 9.90349 4.08337 10.2947L1.96349 11.3924C1.73636 11.506 1.57232 11.7079 1.50923 11.9603C1.44614 12.2126 1.484 12.4524 1.6228 12.6669L2.90987 14.6732C3.36413 15.3798 3.36413 16.2884 2.90987 16.995L1.6228 19.0013C1.484 19.2158 1.44614 19.4682 1.50923 19.7206C1.57232 19.9729 1.73636 20.1622 1.96349 20.2758L4.08337 21.3736C4.82785 21.7647 5.28211 22.5471 5.24426 23.3925L5.13069 25.7774C5.13069 26.0297 5.20641 26.2695 5.39568 26.4461C5.58496 26.6228 5.81209 26.7111 6.06445 26.7111L8.4367 26.5975C8.4367 26.5975 8.49979 26.5975 8.53765 26.5975H8.55027Z" fill="#EDAA50"/>
<path d="M15.9947 26.3205C10.2155 26.3205 5.52148 21.6264 5.52148 15.8472C5.52148 10.068 10.2155 5.37402 15.9947 5.37402C21.7739 5.37402 26.4679 10.068 26.4679 15.8472C26.4679 21.6264 21.7739 26.3205 15.9947 26.3205ZM15.9947 6.63586C10.9095 6.63586 6.78332 10.7621 6.78332 15.8472C6.78332 20.9324 10.9095 25.0586 15.9947 25.0586C21.0799 25.0586 25.2061 20.9198 25.2061 15.8472C25.2061 10.7747 21.0799 6.63586 15.9947 6.63586Z" fill="#EDAA50"/>
<path d="M13.7363 20.8435C13.4208 20.8435 13.118 20.7426 12.8404 20.5533C12.3735 20.2126 12.1464 19.6448 12.2473 19.0769L12.5249 17.4744C12.5376 17.3987 12.5249 17.3104 12.4492 17.2473L11.2883 16.1116C10.8719 15.7078 10.7205 15.1148 10.9098 14.5596C11.0864 14.0044 11.5533 13.6132 12.1338 13.5249L13.7489 13.2851C13.8246 13.2851 13.9003 13.222 13.9382 13.1463L14.6574 11.6826C14.9098 11.1652 15.4272 10.8372 16.0076 10.8372C16.588 10.8372 17.1054 11.1652 17.3578 11.6826L18.077 13.1463C18.1149 13.222 18.178 13.2725 18.2663 13.2851L19.8814 13.5249C20.4493 13.6132 20.9161 14.0044 21.1054 14.5596C21.2821 15.1148 21.1433 15.7078 20.7269 16.1116L19.5534 17.2473C19.5534 17.2473 19.465 17.3861 19.4776 17.4618L19.7552 19.0769C19.8562 19.6448 19.6164 20.2126 19.1496 20.5533C18.6827 20.894 18.077 20.9444 17.5597 20.6668L16.1212 19.9097C16.0455 19.8719 15.9571 19.8719 15.894 19.9097L14.4555 20.6668C14.2284 20.7804 13.9887 20.8435 13.7489 20.8435H13.7363ZM15.995 18.6227C16.2347 18.6227 16.4745 18.6858 16.7016 18.7993L18.1401 19.5564C18.2537 19.6195 18.3546 19.569 18.4051 19.5312C18.4556 19.4933 18.5313 19.4176 18.506 19.2914L18.2284 17.6763C18.1401 17.1842 18.3041 16.6921 18.6575 16.3388L19.831 15.2031C19.9319 15.1148 19.9067 15.0012 19.894 14.9507C19.8814 14.9003 19.831 14.7993 19.6922 14.7867L18.077 14.5469C17.5849 14.4712 17.1559 14.1684 16.9414 13.7268L16.2221 12.263C16.1085 12.0233 15.894 12.0107 15.7805 12.263L15.0612 13.7268C14.8341 14.181 14.4177 14.4839 13.9256 14.5596L12.3104 14.7993C12.1716 14.8119 12.1212 14.9129 12.1085 14.9634C12.0959 15.0138 12.0707 15.1274 12.1716 15.2157L13.3451 16.3514C13.6984 16.7047 13.8625 17.1968 13.7742 17.6889L13.4966 19.2914C13.4713 19.4302 13.547 19.506 13.5975 19.5312C13.648 19.569 13.7489 19.6195 13.8625 19.5564L15.301 18.7993C15.5155 18.6858 15.7679 18.6227 16.0076 18.6227H15.995Z" fill="#EDAA50"/>
</svg>
