<svg width="113" height="100" viewBox="0 0 113 100" fill="none" xmlns="http://www.w3.org/2000/svg">
<path d="M110.432 100H1.61592C0.711007 100 0 99.2937 0 98.3949V23.4671C0 22.5682 0.711007 21.862 1.61592 21.862H8.37049V18.2665C8.37049 17.6565 8.72599 17.0787 9.27541 16.8218C16.7087 13.2263 24.6913 11.3965 32.9972 11.3965C41.303 11.3965 48.7686 13.0979 56.0079 16.4687L88.7789 0.160517C89.2637 -0.0963052 89.8777 -0.0642025 90.3625 0.224722C90.8473 0.513647 91.1381 1.02729 91.1381 1.60514V12.7769C95.2103 13.7079 99.1208 15.0562 102.773 16.8218C103.322 17.0787 103.678 17.6565 103.678 18.2665V21.862H110.432C111.337 21.862 112.048 22.5682 112.048 23.4671V98.3949C112.048 99.2937 111.337 100 110.432 100ZM57.6562 96.7897H108.816V25.0722H103.678V91.1076C103.678 91.6533 103.387 92.1669 102.934 92.4559C102.45 92.7448 101.868 92.7769 101.383 92.5522C94.4023 89.1814 86.9044 87.4799 79.0833 87.4799C71.2623 87.4799 64.4107 89.053 57.6885 92.1348V96.7897H57.6562ZM3.26417 96.7897H54.4243V92.1348C47.7021 89.053 40.4951 87.4799 33.0295 87.4799C25.5639 87.4799 17.7105 89.1814 10.7297 92.5522C10.245 92.809 9.63091 92.7769 9.17845 92.4559C8.72599 92.1348 8.43512 91.6533 8.43512 91.1076V25.0722H3.23185V96.7897H3.26417ZM79.0833 84.2697C86.5489 84.2697 93.7236 85.7464 100.478 88.6356V19.2616C97.5049 17.9133 94.4023 16.8218 91.1704 16.0514V74.4462C91.1704 75.0562 90.8149 75.6019 90.2655 75.8909L72.7166 84.6228C74.8173 84.366 76.918 84.2697 79.051 84.2697H79.0833ZM33.0618 84.2697C40.5274 84.2697 47.7021 85.7464 54.4567 88.6356V19.2616C40.9798 13.0658 25.1115 13.0658 11.667 19.2616V88.6035C18.4215 85.7143 25.6286 84.2376 33.0618 84.2376V84.2697ZM57.6239 19.2616V88.5072L87.874 73.4832V4.20546L57.6239 19.2616ZM20.4576 70.0482C19.7466 70.0482 19.0679 69.5666 18.9063 68.8283C18.8094 68.4109 18.874 67.9615 19.1002 67.6084C19.3265 67.2552 19.682 66.9663 20.1021 66.87C28.5695 64.7833 37.5218 64.7833 45.9892 66.87C46.4417 66.9663 46.7972 67.2552 47.0234 67.6405C47.2496 68.0257 47.2819 68.5072 47.1527 68.9246C46.8941 69.7271 46.0538 70.2087 45.2136 70.0161C37.2632 68.0899 28.8604 68.0899 20.8777 70.0161C20.7485 70.0161 20.6192 70.0482 20.4899 70.0482H20.4576ZM66.5114 68.7962C66.3175 68.7962 66.1236 68.7641 65.962 68.6998C65.5419 68.5393 65.2187 68.2183 65.0248 67.801C64.7016 66.9984 65.0248 66.0995 65.8004 65.7143L78.34 59.4543C78.7278 59.2616 79.2126 59.2295 79.6328 59.3901C80.0529 59.5506 80.3761 59.8716 80.57 60.2568C80.8932 61.0273 80.57 61.9904 79.8267 62.3435L67.2548 68.5714C67.0285 68.6999 66.77 68.7319 66.5438 68.7319L66.5114 68.7962ZM20.4576 57.5602C20.1667 57.5602 19.8759 57.4639 19.6173 57.3355C19.2618 57.1108 19.0033 56.7576 18.874 56.3403C18.6801 55.4735 19.1972 54.5746 20.0698 54.382C28.5695 52.3275 37.4571 52.3275 45.9569 54.382C46.377 54.4783 46.7649 54.7673 46.9911 55.1525C47.2173 55.5377 47.2496 55.9872 47.1204 56.4045C46.8618 57.2071 46.0215 57.7528 45.1812 57.5281C37.1663 55.5698 28.8604 55.5698 20.8454 57.5281C20.7162 57.5281 20.5869 57.5602 20.4576 57.5602ZM66.5114 56.3082C66.3175 56.3082 66.1559 56.3082 65.962 56.2119C65.5419 56.0514 65.2187 55.7624 65.0248 55.3772C64.6693 54.5425 65.0248 53.6437 65.7681 53.2263L78.3077 46.9663C78.6955 46.7737 79.148 46.7416 79.5358 46.87C79.9559 46.9984 80.2791 47.2873 80.473 47.6726C80.8609 48.4751 80.57 49.4703 79.762 49.8555L67.1901 56.1156C66.9639 56.244 66.7054 56.2761 66.4791 56.2761L66.5114 56.3082ZM20.4576 45.0722C19.7466 45.0722 19.0679 44.5907 18.9063 43.8523C18.8094 43.435 18.874 42.9856 19.1002 42.6324C19.3265 42.2793 19.682 41.9904 20.1021 41.8941C28.5695 39.8074 37.5218 39.8395 45.9892 41.8941C46.4417 41.9904 46.7972 42.2793 47.0234 42.6645C47.2496 43.0498 47.2819 43.5313 47.1527 43.9486C46.8941 44.7512 46.0538 45.2327 45.2136 45.0401C37.1986 43.0819 28.8927 43.0819 20.8777 45.0401C20.7485 45.0401 20.6192 45.0722 20.4899 45.0722H20.4576ZM66.5114 43.8202C66.3175 43.8202 66.1236 43.7881 65.962 43.7239C65.5419 43.5634 65.2187 43.2424 65.0248 42.825C64.7016 42.0225 65.0248 41.1236 65.8004 40.7384L78.34 34.5104C78.7278 34.3178 79.148 34.2857 79.5681 34.4141C79.9883 34.5425 80.3114 34.8315 80.5053 35.2167C80.8932 36.0193 80.6023 37.0145 79.7943 37.3997L67.2225 43.6597C66.9962 43.7881 66.7377 43.8202 66.5114 43.8202ZM20.4576 32.5843C20.1667 32.5843 19.8436 32.488 19.585 32.3275C19.2295 32.1027 18.9386 31.7175 18.874 31.3002C18.6801 30.4655 19.1972 29.5666 20.0698 29.374C28.5695 27.3194 37.4571 27.3194 45.9569 29.374C46.377 29.4703 46.7649 29.7592 46.9588 30.1124C47.185 30.4976 47.2496 30.947 47.1204 31.3644C46.8941 32.199 46.0215 32.7448 45.1812 32.5201C37.1986 30.5618 28.8281 30.5618 20.8454 32.5201C20.7162 32.5201 20.5869 32.5522 20.4576 32.5522V32.5843ZM66.5114 31.3323C66.3175 31.3323 66.1236 31.3002 65.962 31.236C65.5419 31.0754 65.2187 30.7544 65.0248 30.3371C64.7016 29.5345 65.0248 28.6356 65.8004 28.2504L78.34 21.9904C78.7278 21.7978 79.2126 21.7657 79.6328 21.9262C80.0529 22.0867 80.3761 22.4077 80.57 22.7929C80.8932 23.5634 80.57 24.5265 79.8267 24.8796L67.2548 31.1075C67.0285 31.236 66.77 31.2681 66.5438 31.2681L66.5114 31.3323Z" fill="white"/>
</svg>
