<svg width="115" height="100" viewBox="0 0 115 100" fill="none" xmlns="http://www.w3.org/2000/svg">
<g clip-path="url(#clip0_21_358)">
<path d="M113.846 2.62238C112.762 1.04895 110.979 0 108.916 0H27.0979C27.0979 0 27.0629 0 27.028 0C26.4685 0 25.9441 0.104895 25.4196 0.27972C25.2797 0.314685 25.1399 0.34965 25 0.41958C24.5105 0.594406 24.0559 0.839161 23.6364 1.15385C23.4965 1.25874 23.3916 1.32867 23.2867 1.43357C22.9021 1.74825 22.5874 2.0979 22.3077 2.48252C22.2727 2.51748 22.2378 2.58741 22.2028 2.62238C21.8881 3.07692 21.6434 3.6014 21.4685 4.16084C21.4685 4.1958 21.4336 4.26573 21.3986 4.3007C15.3147 5.03497 10.5944 10.2448 10.5944 16.5385C10.5944 21.1538 13.1469 25.2098 16.9231 27.2727H11.3636C6.15385 27.2727 1.92308 31.5035 1.95804 36.5035L0 52.0979C0 56.1888 2.9021 60.1049 6.60839 61.5385L1.57343 71.6084C1.01399 72.7622 1.08392 74.0909 1.74825 75.1748C2.41259 76.2587 3.6014 76.9231 4.86014 76.9231H11.5385V93.4615C11.5385 97.0629 14.4755 100 18.1119 100C20.035 100 21.7483 99.1608 22.9021 97.8671C24.0559 99.1608 25.8042 100 27.7273 100C31.3287 100 34.2657 97.0629 34.2657 93.4615V76.9231H40.9441C42.2378 76.9231 43.3916 76.2587 44.0909 75.1748C44.7552 74.0909 44.8252 72.7622 44.2308 71.6084L38.1119 59.1958L38.007 58.042H108.916C112.203 58.042 114.86 55.3846 114.86 52.0979V5.94406C114.86 4.72028 114.476 3.56643 113.846 2.62238ZM67.9371 33.8462C67.9371 30.2098 65 27.2727 61.3636 27.2727H28.951C29.2657 27.0979 29.5455 26.8881 29.8252 26.6783C33.0769 24.4755 35.2448 20.7343 35.2448 16.5385C35.2448 10.5245 30.9441 5.48951 25.2098 4.40559C25.2797 4.3007 25.4196 4.26573 25.4895 4.16084C25.9091 3.77622 26.4685 3.4965 27.0979 3.4965H108.916C109.895 3.4965 110.769 4.09091 111.154 4.96503C111.294 5.27972 111.364 5.59441 111.364 5.94406V52.0979C111.364 52.7622 111.084 53.3916 110.664 53.8461C110.559 53.951 110.385 54.021 110.28 54.1259C109.895 54.3706 109.441 54.5804 108.951 54.5804H37.6923L36.7133 44.1608L36.3636 40.4196H61.3636C62.2727 40.4196 63.1469 40.2448 63.9161 39.8951C66.2937 38.9161 67.9371 36.5734 67.9371 33.8811V33.8462ZM14.0909 16.5385C14.0909 12.2378 17.1329 8.67133 21.1538 7.86713C21.7133 7.76224 22.3077 7.69231 22.9021 7.69231C23.4965 7.69231 24.0909 7.76224 24.6503 7.86713C24.7203 7.86713 24.7902 7.9021 24.8601 7.93706C25.3147 8.04196 25.7692 8.18182 26.2238 8.35664C26.3986 8.42657 26.5385 8.53147 26.7133 8.6014C27.028 8.74126 27.3776 8.91608 27.6573 9.12587C27.8322 9.23077 27.972 9.37063 28.1469 9.47552C28.4266 9.68531 28.6713 9.8951 28.951 10.1399C29.0909 10.2797 29.2308 10.4196 29.3706 10.5594C29.6154 10.8042 29.8252 11.0839 30.035 11.3636C30.1399 11.5035 30.2448 11.6783 30.3496 11.8182C30.5594 12.1329 30.7343 12.4476 30.8741 12.7972C30.9441 12.9371 31.014 13.0769 31.0839 13.2517C31.2587 13.6713 31.3986 14.0909 31.4685 14.5455C31.4685 14.6503 31.5385 14.7203 31.5385 14.8252C31.6434 15.3846 31.7133 15.9441 31.7133 16.5385C31.7133 17.1329 31.6434 17.7273 31.5385 18.2867C31.5385 18.3217 31.5385 18.3916 31.5035 18.4266C31.3986 18.9161 31.2587 19.4056 31.049 19.8601C30.979 20 30.9441 20.1049 30.8741 20.2448C30.6993 20.5944 30.5245 20.9441 30.3147 21.2937C30.2098 21.4336 30.1049 21.6084 30 21.7483C29.7902 22.028 29.5804 22.2727 29.3357 22.5524C29.1958 22.6923 29.0559 22.8671 28.8811 23.007C28.6364 23.2168 28.3916 23.4266 28.1469 23.6014C27.972 23.7413 27.7972 23.8811 27.5874 23.986C27.3427 24.1608 27.0629 24.3007 26.7832 24.4406C26.5734 24.5455 26.3636 24.6503 26.1538 24.7552C25.8392 24.8951 25.4895 24.965 25.1399 25.0699C24.965 25.1049 24.7902 25.1748 24.5804 25.2448C24.021 25.3496 23.4266 25.4196 22.8322 25.4196C22.2378 25.4196 21.6434 25.3496 21.0839 25.2448C17.0629 24.4406 14.021 20.8741 14.021 16.6084L14.0909 16.5385ZM18.1119 96.5035C16.4336 96.5035 15.035 95.1399 15.035 93.4615V76.9231H21.1538V93.4615C21.1538 95.1399 19.7902 96.5035 18.1119 96.5035ZM30.7692 93.4615C30.7692 95.1399 29.4056 96.5035 27.7273 96.5035C26.049 96.5035 24.6503 95.1399 24.6503 93.4615V76.9231H30.7692V93.4615ZM40.9441 73.4266L4.72028 73.1818L10.7343 61.1189C10.7343 61.1189 10.8741 60.7692 10.9091 60.5594L11.0839 58.7762C11.5734 55.9091 12.0979 50.5594 13.1119 40.7343C13.2168 39.7902 12.5175 38.9161 11.5385 38.8112C10.6294 38.7063 9.72028 39.4056 9.61538 40.3846L7.65734 58.2168C5.34965 57.2378 3.4965 54.7203 3.4965 52.3077L5.41958 36.7133C5.41958 33.4266 8.07692 30.7692 11.3636 30.7692H61.3636C63.042 30.7692 64.4406 32.1329 64.4406 33.8462C64.4406 34.7902 63.986 35.5944 63.2867 36.1888C62.7622 36.6084 62.0979 36.9231 61.3636 36.9231H34.4406C33.951 36.9231 33.4965 37.1329 33.1469 37.4825C32.8322 37.8671 32.6573 38.3566 32.6923 38.8461L34.1608 54.5804L34.2657 55.6643L34.3357 56.5035L34.4755 58.0769L34.5804 59.3706C34.5804 59.9301 34.7203 60.5245 34.965 61.014L40.9091 73.4615L40.9441 73.4266Z" fill="white"/>
<path d="M98.4266 86.014C97.6573 86.014 96.9231 86.1189 96.1888 86.2238C98.6014 83.986 100.175 80.8042 100.175 77.2727C100.175 70.5245 94.6853 65.035 87.9371 65.035C83.4615 65.035 79.5804 67.4825 77.4476 71.0839C75.3147 67.4825 71.4336 65.035 66.958 65.035C60.2098 65.035 54.7203 70.5245 54.7203 77.2727C54.7203 80.8392 56.2587 83.986 58.7063 86.2238C57.972 86.0839 57.2378 86.014 56.4685 86.014C49.7203 86.014 44.2308 91.5035 44.2308 98.2517C44.2308 99.2308 45 100 45.979 100H108.916C109.895 100 110.664 99.2308 110.664 98.2517C110.664 91.5035 105.175 86.014 98.4266 86.014ZM87.9371 68.5315C92.7622 68.5315 96.6783 72.4476 96.6783 77.2727C96.6783 82.0979 92.7622 86.014 87.9371 86.014C83.1119 86.014 79.1958 82.0979 79.1958 77.2727C79.1958 72.4476 83.1119 68.5315 87.9371 68.5315ZM79.6853 86.2238C78.9511 86.0839 78.2168 86.014 77.4476 86.014C76.6783 86.014 75.9441 86.1189 75.2098 86.2238C76.0839 85.4196 76.8182 84.4755 77.4476 83.4615C78.042 84.4755 78.8112 85.4196 79.6853 86.2238ZM58.2168 77.2727C58.2168 72.4476 62.1329 68.5315 66.958 68.5315C71.7832 68.5315 75.6993 72.4476 75.6993 77.2727C75.6993 82.0979 71.7832 86.014 66.958 86.014C62.1329 86.014 58.2168 82.0979 58.2168 77.2727ZM47.9021 96.5035C48.7063 92.5175 52.2378 89.5105 56.4685 89.5105C60.6993 89.5105 64.2308 92.5175 65.035 96.5035H47.9021ZM66.958 92.0629C66.3636 91.0489 65.5944 90.1049 64.7203 89.3007C65.4546 89.4406 66.1888 89.5105 66.958 89.5105C67.7273 89.5105 68.4615 89.4056 69.1958 89.3007C68.3217 90.1049 67.5874 91.0489 66.958 92.0629ZM68.8811 96.5035C69.6853 92.5175 73.2168 89.5105 77.4476 89.5105C81.6783 89.5105 85.2098 92.5175 86.014 96.5035H68.8811ZM87.9371 92.0629C87.3427 91.0489 86.5734 90.1049 85.6993 89.3007C86.4336 89.4406 87.1678 89.5105 87.9371 89.5105C88.7063 89.5105 89.4406 89.4056 90.1748 89.3007C89.3007 90.1049 88.5664 91.0489 87.9371 92.0629ZM89.8601 96.5035C90.6643 92.5175 94.1958 89.5105 98.4266 89.5105C102.657 89.5105 106.189 92.5175 106.993 96.5035H89.8601Z" fill="white"/>
</g>
<defs>
<clipPath id="clip0_21_358">
<rect width="114.86" height="100" fill="white"/>
</clipPath>
</defs>
</svg>
