<svg width="80" height="76" viewBox="0 0 80 76" fill="none" xmlns="http://www.w3.org/2000/svg">
<path d="M66.9921 53.7467L56.3685 47.6105C55.6927 47.205 54.8277 47.205 54.1249 47.6105C53.422 48.016 52.9895 48.7458 52.9895 49.5568V61.8293C52.9895 62.6402 53.422 63.3701 54.0978 63.7756C54.4493 63.9648 54.8277 64.0729 55.2332 64.0729C55.6387 64.0729 56.0171 63.9648 56.3415 63.7756L66.965 57.6393C67.6679 57.2339 68.1004 56.504 68.1004 55.693C68.1004 54.8821 67.6679 54.1522 66.965 53.7467H66.9921ZM55.7198 61.0183V50.3407L64.9647 55.666L55.7198 60.9913V61.0183Z" fill="white"/>
<path d="M44.4745 38.7982C45.6369 38.7982 46.583 37.852 46.583 36.6897C46.583 35.5273 45.6369 34.5812 44.4745 34.5812C43.3121 34.5812 42.366 35.5273 42.366 36.6897C42.366 37.852 43.3121 38.7982 44.4745 38.7982Z" fill="white"/>
<path d="M15.4152 53.2872C15.28 53.152 15.0908 53.0439 14.8746 52.9628C14.8746 52.9628 14.8746 52.9628 14.8205 52.9628C14.7124 52.9358 14.5772 52.8817 14.0636 52.8276C13.4959 52.8276 12.9553 53.0709 12.5768 53.4494C12.1714 53.8278 11.9551 54.3955 11.9551 54.9361C11.9551 55.4768 12.1714 56.0444 12.5768 56.4229C12.9823 56.8284 13.4959 57.0446 14.0636 57.0446C14.1177 57.0446 14.3069 57.0446 14.3609 57.0446C14.442 57.0446 14.6042 56.9906 14.6853 56.9635C14.6853 56.9635 14.9286 56.8824 15.0367 56.8284C15.0908 56.8013 15.1719 56.7473 15.226 56.7202C15.3071 56.6662 15.5233 56.4769 15.5774 56.4229C15.9558 56.0174 16.1991 55.4768 16.1991 54.9361C16.1991 54.3955 15.9829 53.8549 15.4152 53.2872Z" fill="white"/>
<path d="M29.2826 57.0446C30.447 57.0446 31.3911 56.1006 31.3911 54.9361C31.3911 53.7716 30.447 52.8276 29.2826 52.8276C28.1181 52.8276 27.1741 53.7716 27.1741 54.9361C27.1741 56.1006 28.1181 57.0446 29.2826 57.0446Z" fill="white"/>
<path d="M29.2826 38.7982C30.447 38.7982 31.3911 37.8542 31.3911 36.6897C31.3911 35.5252 30.447 34.5812 29.2826 34.5812C28.1181 34.5812 27.1741 35.5252 27.1741 36.6897C27.1741 37.8542 28.1181 38.7982 29.2826 38.7982Z" fill="white"/>
<path d="M69.8845 38.5548V27.2555V17.7943C69.8845 12.2798 65.7486 7.71144 60.4233 7.06268V5.49483C60.4233 2.65648 58.1256 0.358765 55.2873 0.358765C52.4489 0.358765 50.1512 2.65648 50.1512 5.49483V6.98158H20.6324V5.49483C20.6324 2.65648 18.3347 0.358765 15.4963 0.358765C12.658 0.358765 10.3602 2.65648 10.3602 5.49483V7.06268C5.03496 7.73847 0.899078 12.2798 0.899078 17.7943V27.2555V55.6931C0.899078 61.6671 5.76482 66.5328 11.7118 66.5328H41.9605C45.5558 72.2095 51.8812 75.994 59.0988 75.994C70.29 75.994 79.3997 66.8843 79.3997 55.6931C79.3997 48.4755 75.6152 42.1501 69.9385 38.5548H69.8845ZM52.8274 5.46779C52.8274 4.1162 53.9086 3.03492 55.2602 3.03492C56.6118 3.03492 57.6931 4.14323 57.6931 5.46779V11.1445C57.6931 12.4961 56.5848 13.5774 55.2602 13.5774C53.9357 13.5774 52.8274 12.4691 52.8274 11.1445V5.46779ZM13.0364 5.46779C13.0364 4.1162 14.1177 3.03492 15.4693 3.03492C16.8209 3.03492 17.9021 4.14323 17.9021 5.46779V11.1445C17.9021 12.4961 16.7938 13.5774 15.4693 13.5774C14.1447 13.5774 13.0364 12.4691 13.0364 11.1445V5.46779ZM10.3332 9.76587V11.1445C10.3332 13.9828 12.6309 16.2806 15.4693 16.2806C18.3076 16.2806 20.6053 13.9828 20.6053 11.1445V9.65774H50.1242V11.1445C50.1242 13.9828 52.4219 16.2806 55.2602 16.2806C58.0986 16.2806 60.3963 13.9828 60.3963 11.1445V9.76587C64.2348 10.4146 67.1543 13.7666 67.1543 17.7673V25.8769H3.5482V17.7673C3.5482 13.7396 6.46765 10.4146 10.3062 9.76587H10.3332ZM40.4738 63.8026H11.6848C7.19751 63.8026 3.57524 60.1533 3.57524 55.666V28.5801H67.2083V37.041C67.2083 37.041 67.1272 37.041 67.1002 37.014C66.6677 36.8248 66.2352 36.6626 65.7756 36.5274C65.5864 36.4463 65.3702 36.3652 65.1809 36.3112C64.7755 36.176 64.3429 36.0949 63.9375 35.9868C63.6942 35.9327 63.4509 35.8516 63.1806 35.7976C63.0454 35.7705 62.8832 35.7435 62.7481 35.7165C61.5316 35.5002 60.3152 35.3651 59.0717 35.3651C47.8805 35.3651 38.7708 44.4748 38.7708 55.666C38.7708 58.5584 39.3925 61.2887 40.4738 63.8026ZM59.0717 73.2638C52.557 73.2638 46.8533 69.6956 43.8257 64.4244C43.0959 63.1539 42.5282 61.7752 42.1227 60.3696C42.0957 60.2344 42.0687 60.1263 42.0146 59.9911C41.8794 59.4235 41.7443 58.8558 41.6632 58.2611C41.6632 58.0989 41.6091 57.9367 41.5821 57.7745C41.501 57.0717 41.4469 56.3689 41.4469 55.639C41.4469 45.9345 49.3402 38.0412 59.0447 38.0412C59.2069 38.0412 59.3961 38.0412 59.5583 38.0412C60.0719 38.0412 60.5585 38.0953 61.0721 38.1494C61.3154 38.1764 61.5857 38.2304 61.829 38.2575C62.2885 38.3386 62.7481 38.4197 63.2076 38.5278C63.4239 38.5819 63.6401 38.6359 63.8293 38.69C64.424 38.8522 65.0187 39.0684 65.6134 39.2847C65.6675 39.2847 65.7216 39.3117 65.7756 39.3388C66.4244 39.6091 67.0461 39.9335 67.6679 40.2849C72.9931 43.3124 76.6154 49.0432 76.6154 55.5849C76.6154 65.2894 68.7221 73.1827 59.0177 73.1827L59.0717 73.2638Z" fill="white"/>
<path d="M29.2826 47.9079C30.447 47.9079 31.3911 46.9639 31.3911 45.7994C31.3911 44.6349 30.447 43.6909 29.2826 43.6909C28.1181 43.6909 27.1741 44.6349 27.1741 45.7994C27.1741 46.9639 28.1181 47.9079 29.2826 47.9079Z" fill="white"/>
<path d="M12.6039 44.3126C12.1984 44.691 11.9821 45.2587 11.9821 45.7993C11.9821 46.34 12.1984 46.8806 12.6039 47.2861C13.0094 47.6916 13.523 47.9078 14.0906 47.9078C14.1447 47.9078 14.3339 47.9078 14.388 47.9078C14.4691 47.9078 14.6313 47.8538 14.7124 47.8267C14.7124 47.8267 14.9286 47.7456 15.0367 47.6916C15.1178 47.6645 15.1989 47.6105 15.28 47.5564C15.28 47.5564 15.5504 47.3402 15.6044 47.2861C16.0099 46.8806 16.2262 46.34 16.2262 45.7993C16.2262 45.2587 16.0099 44.7181 15.6044 44.2856C14.8475 43.5557 13.3608 43.5557 12.6309 44.2856L12.6039 44.3126ZM14.0095 45.9345L13.8203 45.6642L13.7663 45.5831L14.0095 45.9075V45.9345Z" fill="white"/>
<path d="M14.3069 34.6082C14.3069 34.6082 14.2528 34.6082 14.2258 34.6082C14.1717 34.6082 14.1447 34.6082 14.0907 34.6082C13.9014 34.6082 13.7122 34.6622 13.523 34.7163C13.523 34.7163 13.4689 34.7163 13.4419 34.7163C13.1986 34.7974 12.9823 34.9325 12.7661 35.0947C12.7661 35.0947 12.712 35.0947 12.685 35.1488H12.658C12.658 35.1488 12.5769 35.2569 12.5228 35.311C12.4417 35.365 12.3876 35.4461 12.3065 35.5272V35.5813C12.3065 35.5813 12.1173 35.8516 12.0633 36.0138C12.0362 36.1219 11.9822 36.2301 11.9281 36.7437C11.9281 37.3113 12.1444 37.825 12.5498 38.2304C12.9553 38.6359 13.496 38.8522 14.0366 38.8522C15.199 38.8522 16.1451 37.906 16.1451 36.7437C16.1451 35.6624 15.3071 34.7974 14.2528 34.6622L14.3069 34.6082Z" fill="white"/>
</svg>
