<svg width="40" height="34" viewBox="0 0 40 34" fill="none" xmlns="http://www.w3.org/2000/svg">
<path d="M16.0001 24.7315H8.95902C4.01263 24.7315 0 20.7189 0 15.7725C0 10.8261 4.02525 6.81348 8.95902 6.81348H16.0001V24.7315V24.7315ZM8.95902 8.07531C4.71926 8.07531 1.26183 11.5327 1.26183 15.7725C1.26183 20.0123 4.71926 23.4697 8.95902 23.4697H14.7382V8.07531H8.95902Z" fill="#EDAA50"/>
<path d="M3.65901 16.4419H3.02809L2.99023 15.7732C2.99023 12.4798 5.66532 9.80469 8.95871 9.80469H9.58963L9.62748 11.1044L8.95871 11.1422C6.4098 11.1422 4.32778 13.2243 4.32778 15.7732V16.4041L3.65901 16.4419V16.4419Z" fill="#EDAA50"/>
<path d="M31.6727 31.5458C30.0702 31.5458 28.7705 30.2462 28.7705 28.6436V2.90222C28.7705 1.29969 30.0702 0 31.6727 0C33.2753 0 34.5749 1.29969 34.5749 2.90222V28.6436C34.5749 30.2462 33.2753 31.5458 31.6727 31.5458ZM31.6727 1.26183C30.7642 1.26183 30.0323 1.9937 30.0323 2.90222V28.6436C30.0323 29.5521 30.7642 30.284 31.6727 30.284C32.5812 30.284 33.3131 29.5521 33.3131 28.6436V2.90222C33.3131 1.9937 32.5812 1.26183 31.6727 1.26183Z" fill="#EDAA50"/>
<path d="M33.9436 20.9468H33.3127V10.5997H33.9436C36.7953 10.5997 39.1171 12.9215 39.1171 15.7732C39.1171 18.625 36.7953 20.9468 33.9436 20.9468V20.9468ZM34.5745 11.912V19.6345C36.4294 19.3316 37.8553 17.7165 37.8553 15.7732C37.8553 13.83 36.4294 12.2149 34.5745 11.912V11.912Z" fill="#EDAA50"/>
<path d="M15.0163 33.0596H11.9879C10.8018 33.0596 9.84276 32.1006 9.84276 30.9145L9.00995 23.4697H17.1614V30.9145C17.1614 32.1006 16.2024 33.0596 15.0163 33.0596V33.0596ZM10.4232 24.7315L11.1046 30.8388C11.1046 31.394 11.5084 31.7851 11.9879 31.7851H15.0163C15.5084 31.7851 15.8996 31.394 15.8996 30.9019V24.7189H10.4232V24.7315Z" fill="#EDAA50"/>
<path d="M30.0307 28.6438H28.7689C28.7689 26.486 27.0149 24.7321 24.8572 24.7321H14.7373V6.81403H24.8572C27.0149 6.81403 28.7689 5.06008 28.7689 2.90234H30.0307V28.6438ZM15.9991 23.4702H24.8572C26.4219 23.4702 27.8225 24.1642 28.7689 25.262V6.28406C27.8225 7.38185 26.4219 8.07586 24.8572 8.07586H15.9991V23.4702V23.4702Z" fill="#EDAA50"/>
<path d="M16.5303 29.2742H15.8994V23.4697H21.7039V24.1006C21.7039 26.9524 19.3821 29.2742 16.5303 29.2742V29.2742ZM17.1612 24.7316V27.9619C18.8143 27.6969 20.1266 26.3846 20.3915 24.7316H17.1612Z" fill="#EDAA50"/>
</svg>
